<svg id="Layer_1" enable-background="new 0 0 60 60" height="512" viewBox="0 0 60 60" width="512" xmlns="http://www.w3.org/2000/svg"><g><path d="m30 8.2846231c-11.9782085 0-21.7153769 9.7371817-21.7153769 21.7153769s9.7371684 21.7153778 21.7153769 21.7153778c11.9695129 0 21.7153778-9.737175 21.7153778-21.7153778s-9.7458649-21.7153769-21.7153778-21.7153769m14.1063271 15.1052161-18.1366864 18.1279983c-.1563721.165905-.3821945.2605858-.6080418.2605858-.2345161 0-.4516697-.0946808-.6167088-.2605858l-8.8511906-8.8503227c-.3387728-.3396263-.3387728-.8868542 0-1.2247467l3.6829205-3.6837902c.3387718-.3474464.8860035-.3474464 1.2334442 0l4.5515347 4.5524044 13.8283615-13.8283443c.3378716-.3396282.8859787-.3396282 1.2247505 0l3.6916161 3.6829262c.3387452.3378906.3387452.8851146.0000001 1.223875" fill="#3b4651"/></g></svg>