<svg height="512" viewBox="0 0 64 64" width="512" xmlns="http://www.w3.org/2000/svg"><g id="No_Wifi" data-name="No Wifi"><circle cx="32.035" cy="49.704" r="4.5"/><path d="m29.31 33.55 5.84 5.84a13.21754 13.21754 0 0 0 -10.72 2.03 1.00121 1.00121 0 0 1 -1.35-.19l-2.48-2.97a.98612.98612 0 0 1 .17-1.44 19.22358 19.22358 0 0 1 8.54-3.27z"/><path d="m43.46 38.24-.45.53-4.29-4.29a18.38779 18.38779 0 0 1 4.57 2.32.98613.98613 0 0 1 .17 1.44z"/><path d="m19.82 24.06 4.46 4.46a23.82471 23.82471 0 0 0 -7.25 3.95.9934.9934 0 0 1 -1.39-.13l-2.51-2.99a.98974.98974 0 0 1 .14-1.43 30.23123 30.23123 0 0 1 6.55-3.86z"/><path d="m50.9 29.31-2.5 3a.99351.99351 0 0 1 -1.39.13 23.99815 23.99815 0 0 0 -14.97-5.19c-.18 0-.36 0-.54.01l-5.17-5.17a31.75 31.75 0 0 1 5.71-.52 30.51667 30.51667 0 0 1 18.72 6.31 1.00582 1.00582 0 0 1 .14 1.43z"/><path d="m11.13 15.37 4.29 4.29a34.42943 34.42943 0 0 0 -5.85 3.9.99545.99545 0 0 1 -1.4-.12l-2.52-3a1.00664 1.00664 0 0 1 .14-1.43 41.24671 41.24671 0 0 1 5.34-3.64z"/><path d="m58.35 20.38-2.51 3a.98752.98752 0 0 1 -1.4.13 35.27779 35.27779 0 0 0 -33.07-6.38l-4.5-4.5a42.02532 42.02532 0 0 1 41.34 6.32 1.00664 1.00664 0 0 1 .14 1.43z"/><path d="m53.21 54.62-43.83-43.83a.997.997 0 0 1 1.41-1.41c4.63944 4.63945 39.67609 39.67606 43.83 43.83a.997.997 0 0 1 -1.41 1.41z"/></g></svg>