<?xml version="1.0"?>
<svg xmlns="http://www.w3.org/2000/svg" xmlns:xlink="http://www.w3.org/1999/xlink" xmlns:svgjs="http://svgjs.com/svgjs" version="1.1" width="512" height="512" x="0" y="0" viewBox="0 0 512 512" style="enable-background:new 0 0 512 512" xml:space="preserve" class=""><g><g xmlns="http://www.w3.org/2000/svg"><path d="m448.266 0h-192.266l-60 224.133 60 224.133h96.665l95.601 63.734v-63.734c35.199 0 63.734-28.535 63.734-63.734v-320.798c0-35.199-28.535-63.734-63.734-63.734z" fill="#dbcab7" data-original="#f5e29e" class=""/><g fill="#2c2c2f"><path d="m346 250.029h-30v-42.306l20.841-7.723c7.161-2.648 11.567-9.566 10.972-17.217-.642-8.253-7.361-14.891-15.63-15.441-4.75-.312-9.26 1.286-12.703 4.507-3.448 3.227-5.347 7.602-5.347 12.32h-30c0-12.92 5.413-25.395 14.85-34.226 9.571-8.956 22.07-13.411 35.19-12.535 23.039 1.531 41.761 20.038 43.551 43.048 1.62 20.837-10.908 40.443-30.466 47.677l-1.258.467z" fill="#2c2c2f" data-original="#2c2c2f" class=""/><path d="m241 282.83h45v30h-45z" fill="#2c2c2f" data-original="#2c2c2f" class=""/><path d="m316 282.83h30v30h-30z" fill="#2c2c2f" data-original="#2c2c2f" class=""/></g><path d="m63.734 0c-35.199 0-63.734 28.535-63.734 63.734v320.797c0 35.2 28.535 63.734 63.734 63.734h192.266v-448.265z" fill="#dfd0c0" data-original="#f6f6a8" class=""/><path d="m196 282.83h30v30h-30z" fill="#48484c" data-original="#48484c"/><path d="m136 282.83h30v30h-30z" fill="#48484c" data-original="#48484c"/></g></g></svg>
