<svg id="Layer_1" enable-background="new 0 0 68 68" height="512" viewBox="0 0 68 68" width="512" xmlns="http://www.w3.org/2000/svg"><g id="_x32_3"><path d="m36.1269264 59.8288078c-.4091797-.0722656-.7973633.1982422-.8710938.6054688-.0732422.4082031.1982422.7978516.6054688.8710938 10.4528198 1.8724442 20.3167152-5.6554108 21.2827148-16.2099609.0375977-.4121094-.2661133-.7773438-.6787109-.8154297-.4145508-.0410156-.777832.265625-.8154297.6787109-.8857154 9.685894-9.9450874 16.5917472-19.5229492 14.8701171z"/><path d="m26.9189205 33.9772453c.2783203-.3066406.2548828-.78125-.0517578-1.0595703s-.7807617-.2558594-1.0595703.0517578c-4.7158203 5.1982422-5.8041992 13.4980469-2.5874023 19.734375.1923466.3720131.6473122.5103569 1.0102539.3232422.3681641-.1904297.5126953-.6425781.3227539-1.0107422-2.9404297-5.7011718-1.9453125-13.2871093 2.3657226-18.0390625z"/><path d="m35.787571 43.7956047c2.3059082 1.257431 5.2223701.428318 7.1430664 1.4658203 1.7890587.9653473 2.1938133 3.6295738.9433594 5.2226563-1.2861328 1.6416016-4.4936523 2.390625-5.9516602 1.7539063-1.1606445-.5087891-1.8969727-1.3583984-2.1884766-2.5234375-.1005859-.4023438-.5078125-.6484375-.909668-.5458984-.4018555.1005859-.6459961.5078125-.5454102.9091797.4042969 1.6171875 1.4560547 2.8388672 3.0419922 3.5341797.4654541.2034302 1.0455933.2994995 1.6682739.3228149l.0348511 1.8363647c.0078125.4091797.3422852.7353516.7495117.7353516h.0146484c.4140625-.0078125.7436523-.3505859.7358398-.7646484l-.0361328-1.9022217c6.9351311-1.1304512 6.781723-7.939949 3.1557617-9.8985596-2.3059959-1.245182-5.21698-.4162827-7.1376953-1.4619141-1.2143555-.6621094-1.9208984-2.1787109-1.6435547-3.5263672.5796776-2.8103142 4.4206543-4.1255188 7.2700195-1.9990234.3305664.2451172.8017578.1787109 1.0493164-.1533203s.1791992-.8017578-.152832-1.0498047c-1.2026978-.8961792-2.7119141-1.3670654-4.175293-1.3422852v-1.3754883c0-.4140625-.3359375-.75-.75-.75s-.75.3359375-.75.75v1.586853c-1.9846191.5429077-3.5743408 2.1575928-3.9599609 4.0303345-.4116209 2.0009766.595215 4.1640625 2.3940432 5.1455078z"/><path d="m53.3212013 62.0378532c6.4129639-4.890625 9.7532349-13.5053101 8.3135376-21.4407959-1.2532082-6.9073601-6.0776978-13.023056-12.3934937-16.0241718-.5061035-.2404785-1.7347412-.8560791-2.6755981-1.2366333.7617188-1.7145386.8145142-3.5645142.3469238-5.5803223-.2371826-1.0223999-1.9613647-5.7545156-3.2967529-7.6340933 2.8954468-1.6749878 5.7457886-3.3140264 8.0140381-4.5665898.5285034-1.59375.4749146-2.0066528.3978882-2.9560547-.0090332.0054321-.0183716.0108643-.0274048.0162964-.0018921-.007019-.0003052-.0140381-.0023193-.0210571-.1699219-.6035156-.7324219-.9853516-1.340332-.9648438-25.1138458 1.448514-23.397274-.3178042-45.6953125 15.2382813-.8671775.6049232-.603282 1.9452438.4001465 2.2026978.2471313.4337769.4941406.8675537.741272 1.3013916 2.7168579-.2032471 5.4226685-.4197388 8.1248169-.6519165l.4656372 10.1900024c-.0996704.0452881-.2039185.0828247-.2919312.1463013-.2641602.0615234-.5146484.1972656-.7246094.3974609-.3637695.3466797-.5629883.84375-.5332031 1.3300781.0313721.5003681.2941284.9472065.673584 1.278017-.0830688.1331787-.1523438.2740479-.1980591.4230347-.5889893 1.9179688-.7581787 4.0953369-1.1234131 6.0723877-.0548706.296875-.1096191.604126-.0427856.8983765.0668335.2943115.2894287.5739136.5830078.6026001.3898926.038147.6826782-.3480835.8682251-.7015381.1854858-.3534546.401001-.7636108.786438-.8352661-.0611572.5392456-.116394 1.1150513.1245117 1.5985107.2408447.4834595.9020386.7837524 1.3193979.4493408.300293-.2406616.4485474-.755127.8296509-.7463379.3793945.0087891.5206299.5389404.8569336.7189331.368042.1970215.8366089-.1262817.9603271-.5324097.1716461-.5633812.1092968-.4858475-1.812439-7.3126831-.0758667-.2695923-.1618042-.5450439-.2959595-.7865601.748003-.804615.6548615-1.9723186.0159912-2.639101-.1404419-.1467896-.3106079-.2602539-.4939575-.3488159l-.4721689-10.3338623c.5629892-.0505981 1.1270761-.0952759 1.6896372-.1486206.6755753 2.5535145 1.1743717 4.5435848 2.2388916 8.1564941.5327148 1.817688 1.814209 3.2674561 3.4634399 4.0073242-3.0485992 3.8761692-4.4629517 8.4128017-4.4629517 12.9047871 0 4.5470581 1.467041 8.7496338 3.9317627 12.1928101 5.685443 9.5216938 20.2594405 13.3266178 30.7366324 5.3365474zm-3.3690796-58.8652968c-8.0387192 4.3485765-14.0518227 8.0925426-20.9570293 11.6083984-1.4653206.7463541.1706238.1149263-12.8416138 1.657897 1.7103443-2.4546413 6.8385048-3.5417328 10.2433472-4.982482 1.9301147.5883255 3.8070469-.8031301 3.3814697-2.0621338-.2338867-.6914063-1.0063477-1.0107422-1.8725586-.7714844-1.0679951.2918501-1.9871159 1.0584068-2.2153931 1.5028076-3.7985725 1.5811625-7.7119808 2.1632118-10.4755259 5.0841064-.3961182.4187622-.6447144.9092398-.7980347 1.43402-2.522522.3000488-5.1104736.6056519-7.7634888.8735962 20.7761966-14.4856098 19.3123447-13.0058973 43.2988273-14.3447254zm-28.8317241 24.0809932c1.3891602.2589111 2.8023682.3926392 4.2189331.3926392 4.0290184 0 8.1828632-1.0733871 11.6757793-3.1152344.3574219-.2089844.4775391-.6689453.2685547-1.0263672-.2094727-.3583984-.6704102-.4765625-1.0263672-.2685547-1.5954361.9343739-3.500164 1.7254467-5.447752 2.2128906-3.3359985.8643799-6.8424683.9191895-10.1675415.171936-.5623779-1.9664917-1.1289063-4.0523071-1.7188721-6.335083 3.5256348-.3526001 7.0452881-.7614746 10.5643311-1.2971191.7529297-.114624 6.3082867-3.3370962 12.1740704-6.7352896 1.1576767 2.685709 1.9868622 5.2211504 3.050354 8.0432119.6704102 1.7480469.3217773 3.6953125-.9335938 5.0058594-4.9581375 5.0019627-11.5942078 7.4569359-18.9418926 6.2773438l-.3148804-.0615234c-1.5959473-.3736573-2.888916-1.6210328-3.401123-3.2647095zm3.5255737 4.814516c6.2991486 1 12.2110462-.4557495 17.3480206-4.2543354 1.1560669-.6907349 2.1925049-1.4168701 2.9252319-2.1107788 8.4544067 2.328125 14.3004761 9.9501362 14.3004761 18.8055439 0 10.7646484-8.7626953 19.5224571-19.5336914 19.5224571-10.7705059 0-19.5332012-8.7578087-19.5332012-19.5224571-.0000001-4.5105133 1.5599384-8.9315681 4.493164-12.4404297z"/><path d="m50.7738991 13.7643538v4.6796865c0 .4140625.3359375.75.75.75s.75-.3359375.75-.75v-4.6796865c0-.4140625-.3359375-.75-.75-.75s-.75.3359375-.75.75z"/><path d="m55.4198952 21.4030247 3.5766602-4.40625c.2607422-.3212891.2119141-.7939453-.1098633-1.0546865-.3227539-.2626953-.7939453-.2119141-1.0546875.109374l-3.5766602 4.40625c-.4029045.4955387-.0384483 1.2226563.581543 1.2226563.2182617-.0000001.4345703-.0947266.5830078-.2773438z"/><path d="m63.5444069 23.5192356c-.0864258-.40625-.4863281-.6689453-.8896484-.578125-1.6083984.3398438-3.3105469.3398438-4.9189453 0-.40625-.0908203-.8032227.1728516-.8896523.578125-.0859337.4052734.1733437.8027344.5781288.8886719.9067383.1923828 1.8388672.2880859 2.7709961.2880859s1.8642578-.0957031 2.7709961-.2880859c.4047851-.0859375.6640625-.4833985.578125-.8886719z"/></g></svg>