<svg id="Layer_1" enable-background="new 0 0 68 68" height="512" viewBox="0 0 68 68" width="512" xmlns="http://www.w3.org/2000/svg"><g id="_x36_0"><path d="m18.5660419 61.9446602c-.6137657 1.2217255.0869179 2.6956367 1.4407349 2.8847694l1.076416 1.0319214c.1018219.0033417 7.3019333.6328354 24.2828388.4868164.819397-.005249 1.9699707-.5662842 2.4489746-1.296814.4073982-.2462234.5974426-.6802902.5122681-1.093998-1.7208862-8.4244652-9.1204529-13.2182846-16.376955-11.9931641-6.1620865 1.0761987-10.805336 4.8733713-13.3842774 9.9804689zm13.6386738-8.5019531c6.3267784-1.0682449 12.9018555 3.0799408 14.5449219 10.3105469-4.8192329.3492241-18.9530029.3653069-26.5419941-.4326172-.0424805-.0058594-.0849609-.0078125-.1269531-.0048828-.2174835-.1247101-.3093758-.4281235-.175293-.6962891 2.340744-4.6345902 6.5766106-8.1766701 12.2993183-9.1767578z"/><path d="m57.4122353 41.9749336c-5.7395973-1.8306007-12.6445885 1.4280815-15.7626953 7.6083984-.5875053 1.1664772.2191963 2.523468 1.4696045 2.5375366l.6646729.637207c.1001968.0032921 5.8766479.5009117 19.2512207.3859253.5498047-.00354 1.2902794-.3219604 1.7351036-.770874.5624161-.134594.8646545-.6702614.7646484-1.1560059-.9323426-4.5648955-3.6888466-7.8094901-8.1225548-9.2421874zm-14.3046875 8.6132813c-.0239258-.0029297-.0473633-.0039063-.0712891-.0048828-.0831223-.0727272-.1077156-.2044945-.0473633-.3251953 2.8698921-5.6859779 9.0903549-8.4127083 13.9643555-6.8544922 3.5649948 1.1508904 6.0783272 3.7386665 6.9858398 7.5410156-3.493103.2623939-15.0164413.256855-20.8315429-.3564453z"/><path d="m4.0990009 51.2457466.6762085.6482544c.1001992.0032921 5.8767281.5009117 19.2511597.3859253.5504761-.00354 1.2918091-.3228149 1.7363892-.772522.5655556-.1411743.8619251-.6776047.7637329-1.154541-1.3968087-6.8319969-7.4037838-10.6028633-13.1625977-9.6298828-4.9118729.8605232-8.6652756 3.919838-10.722168 7.9951172-.6088552 1.2066841.2960205 2.5753555 1.4572754 2.5276489zm-.1184082-1.8518677c1.8278255-3.6213531 5.143815-6.4059944 9.6376953-7.1923828 4.8864098-.8337631 10.0073643 2.3913727 11.3125 7.8789063-3.4867172.2619133-15.0161505.2540588-20.7626953-.34375-.046875-.0107422-.0942383-.0166016-.1411133-.0175781-.0229492-.0205078-.0395508-.0439453-.0493164-.0625-.0419921-.0751954-.0410156-.1757813.0029297-.2626954z"/><path d="m15.8275166 40.1073189c3.0078163-.2625999 4.8176708-2.5468903 5.0300293-4.9126587.4443188-4.962204-5.2976179-7.9499226-9.4714355-5.4055157-.8941278.3552856-2.2691927 1.5380268-2.87146 3.1657085-1.6859599 4.5573006 2.5175428 8.3135262 7.3128662 7.1524659zm-2.5432129-9.532774c3.2685947-.941679 6.3531952 1.4346752 6.0791016 4.4853497-.1210938 1.3535156-1.0112305 2.6347656-2.2133789 3.1894531-1.5733805.7258606-4.0247078.4108925-5.4174805-.7363281-2.3525382-1.9413071-1.8723526-5.956337 1.5517578-6.9384747z"/><path d="m48.856144 31.6306973c-1.7869682 1.6904697-2.2407837 4.3713284-1.3120728 6.3412457.992794 2.1055984 3.6872253 3.6724281 6.9196167 3.0177002 3.2385788-.1091309 5.1803932-2.4534569 5.4026489-4.9307251.4304657-4.8075066-5.0407677-7.8953876-9.2868652-5.5226421-.5990601.1013793-1.4331665.8200072-1.7233276 1.0944213zm4.8724975-.3930665c2.7830162 0 4.8706245 2.1591854 4.6435547 4.6865215-.1210938 1.3535156-1.0107422 2.6347656-2.2138672 3.1894531-1.5682335.723484-4.0242958.4127731-5.4169922-.7363281-1.2407227-1.0234375-1.7631836-2.8701172-1.2431641-4.390625 0-.0009766 0-.0009766 0-.0009766.6222993-1.8184813 2.399376-2.7480449 4.2304688-2.7480449z"/><path d="m35.1127968 50.7929268c3.9323654-.3929749 6.4772758-3.7668304 6.0241699-7.4265137.1110764-.2653923.0392876 1.1025887.0043945-21.8465557l6.0806274-.1778564c.3417358-.428833.6204224-.9291992.8590088-1.4588013.4843674-.2045155.5964928-.7844868.295105-1.156311-14.7351646-18.2262514-13.549118-16.8297419-13.7621459-16.9715578-.2562523-.1704608-.5725555-.1627257-.8148804-.0041504-.0214233.0137939-.0462036.0180664-.0665283.0343018-.1893959.1530138-.6228218.7529761-14.2304707 17.3017578-.3454514.4203892-.1452827 1.070425.4088745 1.2011719.2536011.5044556.5552368.9760132.9197998 1.3758545h4.9926758l.1677246 20.6975079c-1.8558388 4.9989624 2.8800526 9.7701149 9.121645 8.4311524zm4.5670166-6.1480713c-.1591797 1.7744141-1.3271484 3.4560547-2.9057617 4.1835938-2.0330467.9373856-5.211935.5539322-7.0405293-.9570313-1.9024887-1.5678596-2.4064388-5.1094894-.2298584-7.8690186.6139526-.5507202 1.3751221-.9674683 2.258667-1.2208252 4.2517681-1.2208518 8.2751026 1.8703728 7.9174824 5.8632813zm-5.4810181-41.0881331 12.053772 14.9279785-5.8847656.140625c-.4077148.0097656-.7329102.34375-.7319336.7519531l.0510864 20.4916973c-2.8786087-3.6975098-8.7682648-3.7370758-11.6956196-.4540405-.0823154-20.8697052.199707-20.0244484-.2216797-20.4429302-.140625-.1396484-.3305664-.2177734-.5283203-.2177734-.0019531 0-.0039063 0-.0063477 0l-5.5561523.0458984z"/><path d="m52.0811806 23.3723965v-11.5234375c0-.4140625-.3359375-.75-.75-.75s-.75.3359375-.75.75v11.5234375c0 .4140625.3359375.75.75.75s.75-.3359375.75-.75z"/><path d="m58.3360634 16.2942715v-9.0585938c0-.4140625-.3359375-.75-.75-.75s-.75.3359375-.75.75v9.0585938c0 .4140625.3359375.75.75.75s.75-.3359375.75-.75z"/><path d="m11.7374287 12.9876308v8.2441406c0 .4140625.3359375.75.75.75s.75-.3359375.75-.75v-8.2441406c0-.4140625-.3359375-.75-.75-.75s-.75.3359375-.75.75z"/><path d="m7.5494404 18.0315762c.4140625 0 .75-.3359375.75-.75v-7.4082032c0-.4140625-.3359375-.75-.75-.75s-.75.3359375-.75.75v7.4082031c0 .4140626.3359375.7500001.75.7500001z"/></g></svg>