<svg id="Layer_1" enable-background="new 0 0 68 68" height="512" viewBox="0 0 68 68" width="512" xmlns="http://www.w3.org/2000/svg"><g id="_x39_5"><path d="m9.2780552 24.7790813c-.3073692 2.8933563 1.9333372 5.9355469 5.3916016 5.9355469 3.8000813 0 6.3091259-3.5117702 5.5185547-6.9667969-.6355438-2.7809105-3.1430664-4.3985653-5.5249023-3.8984375-.3242188.0678711-.5556641.3369141-.5913086.6494141-.1713867-.2294922-.46875-.3481445-.7666016-.2817383-2.1035157.4794922-3.7973633 2.3979492-4.0273438 4.5620117zm1.4912109.1586915c.1645508-1.5463867 1.371582-2.9165039 2.8691406-3.2578125.3193359-.0727539.5439453-.3388672.5791016-.6469727.1694336.2265625.4599609.3491211.7543945.2841797.7958984-.1655273 1.6850586.0478516 2.3813477.5727539 2.0518169 1.5474682 1.8841076 4.8533344-.0751953 6.4370117-1.2202148.9868164-3.0351563 1.1791992-4.4121094.4667969-1.3764648-.7124024-2.2583008-2.3344727-2.0966797-3.855957z"/><path d="m57.6750298 43.4328918c.7583008-1.5942383.4506836-3.6381836-.765625-5.0859375-1.3930664-1.6582031-3.8427734-2.4375-5.9506836-1.8955078-1.796875.4614258-3.0366211 1.784668-3.4023438 3.6298828-1.2177277 6.1525422 7.7026482 8.42799 10.1186524 3.3515625zm-6.3432618-5.5288085c1.5737305-.40625 3.3935547.1743164 4.4291992 1.4077148.8320313.9902344 1.0620117 2.4199219.5595703 3.4765625-.9210701 1.9356918-3.9088173 2.6336365-5.8530273 1.1904297-2.2440185-1.6661644-1.9689903-5.3460503.8642578-6.074707z"/><path d="m10.2743931 46.7234802c2.4837198.235939 4.7893496.3693886 7.1533203-.1521606.5922241-.0825806 1.1653442-.1889648 1.7165527-.333252.9912109-.2602539 1.6606445-1.2299805 1.5571289-2.2558594-.0615788-.6133804.0431252-1.3794479.5795898-1.6323242.7999744-.368576 2.998888.5247192 4.6098633-.1435547 1.065918-.4321289 1.7368164-1.4941406 1.5966797-2.5131836-.0486794-.3966026-.2547112-.6866798-.2924805-.8100586.0097656-.0498047.1025391-.1845703.1640625-.2739258.4167614-.6052246.5349808-.9879646.3666992-1.9594727-.0233402-.1349754-.1347408-.9488831-.0664063-1.0458984.4930077-.3169327 2.3799992-.2832794 2.7084961-1.5073242.1450195-.5410156-.050293-1.1479492-.581543-1.8037109-.5673752-.7000751-.73946-1.0550385-1.3857422-2.1479511-.6557617-1.1225586-.644043-2.2563477-.6303711-3.5688477.0102539-1.0239258.0209961-2.0830078-.2822266-3.2387695-.659668-2.5136719-2.027832-4.5527344-3.9570313-5.8969727-3.2098808-2.2368851-6.0086823-2.5976553-9.0307617-2.1646118v-4.1420288c0-1.0024414.815918-1.8178711 1.8183594-1.8178711h12.5817871c-1.4042358 2.7809448-1.416748 6.2138672.0637207 8.9404297 1.0105171 1.8707447 2.4917355 3.3974342 2.8349609 5.2807617.1990528 1.0957222-.083952 3.0413685 1.6940937 4.1460571-.3307495.6530056-.4190521 1.3011551-.0539551 1.9399414-.3671875.6423512-.3226318 1.337719.0507202 1.9213867-.1891251.7779408.1591492 1.521677.7496948 1.8914204.3321609.3965149 1.7870827 2.2042084 2.2957764 2.3243408 1.0198669.2405624 2.0621262.2581062 3.0302734-.1079102.1847534-.0695801.3218994-.2067261.4031982-.3706665.1868896-.1644287.3724976-.3356323.5578003-.5232544.5179939-.3114777 1.781086-1.2308273 2.1082764-1.8878174.1557617-.3128052.1937256-.6997681.0853271-1.0237446-.0056763-.1519165-.0297241-.3012085-.0730591-.4459229.0221558-.0389404.039856-.0799561.0591431-.1203613.3623047-.4619751.3551636-1.2045288-.026123-1.6533813-.0263062-.050293-.0537109-.0986938-.0843506-.1464844.0822983-.1631775.3563995-.5008297.2773438-1.0423584-.0394897-.2709351.0839844-.5488281.3319092-.6650391.5412598-.2536621.9261475-.9163208 1.0341187-1.5534668.1424561-.8407593-.0097656-1.7172241.1752319-2.5492554.3156738-1.4196777 1.5183716-2.4100342 2.4331055-3.524231 2.3612061-2.8759155 2.8456421-7.1929932 1.289978-10.5799561h8.1419678c1.3476563 0 2.4443359 1.0966797 2.4443359 2.4443359v20.8530293c-1.5359497-.6925049-3.4155884-1.1677876-5.2739258-1.3081074-2.0214844-.152832-4.5444336.4990253-6.7490234 1.7441425-2.0932617 1.1816406-3.6831055 3.125-4.597168 5.6191406-.9566956 2.6070442-.2104759 4.9338493-1.5922852 6.8564453-.6973305 1.0030022-1.1039848 1.5290184-1.6230469 2.0576172-1.2195625 1.2453575-.8678474 2.3472862.0820313 2.8183594.4706955.2413559 1.5602913.5802956 1.7958984.7524414.0136375.0676003-.0748253.4855042-.1010742.6650391-.0562897.3830376-.3288307.9557381-.222168 1.6298828.0838776.5190926.4465408.9472923.453125 1.0908203-.0087891.0302734-.0610352.1157227-.0957031.1723633-.7640572 1.2506332-.0904388 2.7098732 1.0898438 3.3237305 1.5645752.8292923 3.9157791.1445541 4.6855469.5927734.5386963.3185654.5705261 1.1239967.4477539 1.7426758-.2036133 1.0273438.3798828 2.0722656 1.3579102 2.4296875.52882.193779 2.4883118.7742043 3.1398926.9120483 4.2761726.9043579 14.4785118.3679123 14.4785118-.7924194 0-.6506348-1.9384155-.8733521-2.9259605-.9580688-.782692-1.193531-1.8889732-2.4449234-2.2002563-3.3963013-.6305466-1.9301376.1524315-3.2353287 1.2616577-4.8728027 1.0876465-1.6054688 2.3599205-3.5830078 3.0121422-5.4176025 1.6066971-4.5197182.7730484-9.3889885-2.397213-12.5923462-.7327881-.8614502-1.5809326-1.612915-2.5264893-2.2359009v-21.6866471c0-2.1748047-1.7695313-3.9443359-3.9443359-3.9443359h-9.0351563c-1.0944862-1.5052557-2.6182861-2.8219233-5.5421753-3.6665645-4.5580978-1.9439747-9.0502739-.2697139-11.8556538 3.4285278-.0213623-.0018311-.0397949-.0124512-.0616455-.0124512h-13.4663084c-1.8295898 0-3.3183594 1.4882808-3.3183594 3.3178706v4.4362183c-1.9846983.4894238-3.8271236 1.3942699-5.5344844 3.1295776-3.0920863 2.7157516-4.4463377 7.2381096-3.2836304 11.8525391 1.3046198 5.1780262 4.8510365 7.3063488 3.0714111 10.6744404-.3439941.6508179-1.5820923 1.901001-2.3197632 2.8222656-.9678957-.0088501-2.872864.0285645-2.9329226.6611328-.0638426.671936 3.6403202 1.5735474 8.2735595 2.0137329zm32.3132343 10.2338257c-.4165039-.2163086-.6875-.6801758-.6020508-1.0429688.0087891-.0297852.0581055-.1103516.0942383-.1694336.4477386-.7291107.4114876-1.2231445-.0146484-1.9887695-.2538605-.4569473-.1631165-.2217102.1269531-1.7094727.4402657-2.2779083-1.690506-2.1790314-2.5561523-2.7416992.202961-.4130096.3387299-.2393265 1.8408203-2.3061523l.2524414-.3476563c1.705162-2.3715897.9058418-4.8242493 1.7827148-7.2158203.8012695-2.1860352 2.1225586-3.8110352 3.9262695-4.8291016 1.956543-1.1049805 4.1582031-1.6889648 5.8989258-1.5546875 2.1196289.159668 4.3447266.8178711 5.8071289 1.7182617 2.6791992 1.6494141 4.519043 4.4985352 5.0473595 7.8164063.6747208 4.2367859-3.2615356 8.8009186-4.892086 12.784668-1.5931969 3.9188232.887001 5.9776115.7270508 6.3916016-.0642662.1606636-.255291.1255226-.4428711.1948242-1.5.3613281-2.796875.6772461-4.6865234.6416016-2.4194336-.0395508-4.3256836-.34375-6-.956543-.2905273-.1064453-.4633789-.4199219-.4018555-.7299805.3188438-1.6091156-.2661476-2.7983208-1.1601563-3.328125-1.374733-.7986564-3.5278244.0201454-4.7475586-.6269531zm-5.5020752-22.6209106c-.7445068-.6147804-1.5127373-1.7308197-1.8321533-1.9666138-.1448441-.2045975-.2803345-.1849899-.3132324-.3543701-.0126953-.067873.0043945-.1518574.0419922-.2045918.2323952-.3263931.1845627-.8165321-.2214966-1.0662842-.1346474-.194006-.0673256-.3862915.0691528-.4908447.4653435-.3574409.3142052-1.0892582-.0727539-1.3374023-.0317383-.0200195-.0605469-.0996094-.0532227-.184082.0129395-.1575928.1079102-.3433228.2079468-.5170288 2.0732231.4829273 4.1131935.2506676 6.1964111-.0322266.09198.1577148.1542358.3095093.1771851.4750366.012207.090332-.015625.1645508-.0395508.1816406-.3719025.2638817-.494297 1.0013447-.009285 1.3393555.1401787.0965137.2248497.2874165.1017532.4882202-.3926659.2694435-.4186096.7611694-.1681519 1.0772095.0740891.0926113.0821037.2427616-.0179443.3329487-.4339333.2656708-1.0829277 1.0645638-2.3432007 2.2341309-.5048217.1414184-1.0816649.1505126-1.7234496.0249023zm1.4169922-7.3756733c-.2077637.0134888-.4160767.0247192-.6251831.0302734-.348877-1.7418823-.6466064-4.6495361-.7990112-7.5595703.509758.0792961 1.0896912.0066624 1.6567383-.2485352-.2636719 2.612854-.2773438 5.2442017-.232544 7.7778321zm-7.6414814-18.0053711c5.9498272-8.2874327 17.5169621-2.0116639 15.5898457 7.1489258-.5524635 2.6256104-4.0903664 4.7798405-4.1162109 8.1123047-.0068245.9939289.2392273 1.6229057-.3208008 2.0517578-.5511551.4222412-1.1000824.4325962-2.012207.5458984-.0498047-2.9174194-.0172119-5.9574585.3979492-8.9179688.6694336-.734375 1.269043-1.5136719 1.7822266-2.3168945.6025391-.9423828.2514648-1.5244141-.0126953-1.7880859-.5551758-.5527344-1.5444336-.4482422-2.0859375-.0073242-.4946289.4042969-.6201172.9584961-.6953125 1.2900391-.1586914.703125-.2915039 1.4135742-.4018555 2.1269531-.5536995.5270023-1.265377.9469051-1.9755859.6708984-.0371094-1.1054688-.0507813-2.1772461-.034668-3.1469727.0229492-1.3994141-.6826172-2.3330078-1.7978516-2.3789063-.7578125-.0166016-1.503418.4306641-1.7841797 1.1254883-.5639191 1.4020472 1.0271454 4.2519646 2.1459961 5.2260742.130188 3.053772.4299927 6.2092285.7987061 8.2367554-2.567585-.2690945-2.8117676-.9104309-2.9471436-2.6415405-.2512665-3.2161961-1.8062401-4.3399467-3.1084003-6.7509766-1.4404298-2.6533203-1.2080079-6.1035156.5781249-8.5864257zm4.614748 5.7446289c-.0073242.465332-.0087891.9501953-.0043945 1.449707-.219841-.3955469-.8401642-1.733573-.6865234-2.1176758.0273438-.0668945.1591797-.1875.3188477-.1875.0043945 0 .0083008 0 .0126953.0004883.3554687.0141602.3618163.7143555.3593749.8549805zm-12.802248 3.9707031c1.6557617 1.1542969 2.7875977 2.8525391 3.3632813 5.0473633.6394844 2.4342442-.3797607 4.703537 1.0688477 7.1835938.6228962 1.0532494.8629417 1.5301456 1.5151367 2.3354511.1552734.1914063.2324219.3339844.2675781.4208984-.0009766 0-.0014648.0004883-.0019531.0004883-1.1881294.4701462-2.9376965.3069534-2.7314453 2.4389648.142231 1.4792023.2559948 1.2438736-.0317383 1.6616211-.4831142.7029228-.5746975 1.1803398-.1987305 1.949707.0288086.059082.0683594.1396484.0751953.1767578.0473633.34375-.2543945.7612305-.6772461.9331055-1.2278194.5055695-3.2659283-.4759064-4.6748047.1713867-.912426.4304085-1.6033802 1.5347137-1.4384766 3.1430664.0297852.2983398-.1616211.5795898-.4453125.6538086-1.6835938.4414063-3.5620117.5615234-5.9160156.3754883-1.8777122-.1471672-3.070343-.567337-4.7807617-1.1547852-.7529383-.2612267 2.4858294-1.9293747 1.184082-6.2675781-1.222538-4.034668-4.6186523-8.8248997-3.5742183-12.8696308.8193359-3.1713867 2.867187-5.7670898 5.6191401-7.1206055 1.5014648-.7382813 3.7211914-1.1787109 5.7963867-1.1323242 1.6972657.0327149 3.7832032.8007813 5.5810548 2.0532227z"/></g></svg>