<svg id="Layer_1" enable-background="new 0 0 68 68" height="512" viewBox="0 0 68 68" width="512" xmlns="http://www.w3.org/2000/svg"><g id="_x38_2"><path d="m64.0126648 33.9955597c-.9355469-1.6497803-2.3421631-3.0304565-4.0625-3.8286743-3.5704346-1.6517944-8.0334473-.4001465-10.6394043 2.5444946-2.2161255-.7797852-4.4527588-1.5184937-6.7098999-2.2161865 3.4366379-7.2633591 2.4745293-16.7594948-4.1039429-22.8074341-3.8902588-3.5715323-11.4281006-6.1044914-15.9967041-5.3666375-6.6814575-.3467406-13.2044678 2.846741-17.5952759 8.6471558-4.3017578 5.6572256-4.859375 13.5341787-1.3876956 19.6025391 2.1444123 3.742382 5.3099098 6.8299599 6.0703125 10.7802734.2301579 1.172245.2110443 2.5271492.4599609 3.7998047.4028931 2.147583 1.8017578 3.8033447 3.7498169 4.4754028-.347229.5906982-.6917114 1.2845459-.7556763 2.0597534-.0630493.7480469.1618652 1.4567871.6010742 1.9797363-.9038115 1.1589737-.8259468 2.6358299.0421753 3.7036133-.5219822 1.4191055.1685276 2.8061218 1.1241455 3.3103638.0244751.0218506.0528564.0371094.0803223.0557251.0984211.1521072 2.3035374 2.8413925 3.7192383 4.0117798.0870361.2207031.2643433.4019165.512146.4602661.6765137.1600342 1.3239746.2411499 1.9567871.2844849 4.5885735.6798096 11.994812.1285629 11.994812-.4217529 0-.513649-6.6604977-.5363846-7.6387329-.526062 1.4129639-.4525146 2.7236938-1.4349365 3.921875-2.397644.7797852-.6155396 1.590271-1.2721558 2.041687-2.1647949.461731-.8925781.461731-2.0929565-.2667236-2.7803345 1.2414551-.8925781 1.3029785-2.9959106.1231079-3.97052.8207397-.8413086.8925781-2.3084717.1641846-3.2421265 1.703064.1436768 2.9855347-1.6312866 3.2728271-3.3139038.5799294-3.3965378-.9696617-5.1037254 2.9981079-9.5484619.1746407-.1275749.3559608-.2603416.5150757-.3876343 3.4681931 1.034729 3.0979919.9227409 3.2119141.9560547.3037109.5507813.6347656 1.1484375.9345703 1.6699219.1025391.1777344.2734375.3056641.4726563.3544922 1.1123734.2715874 2.5772934.8876839 3.9033203 1.2734375.6946373 8.5671883 11.2827644 11.9513245 16.7285156 5.3261719 2.2041016-2.6943359 2.9443359-6.5283203 1.8857422-9.7695313-.3031003-.9185189-.7640988-1.7733163-1.3278195-2.5537728zm-52.4915161 10.8740845c-.2324829-1.1899986-.2071142-2.5166321-.4609375-3.8046875-.836462-4.3438835-4.1297746-7.5549545-6.2412105-11.2392578-3.1767578-5.5517578-2.6621096-12.765625 1.2802734-17.9501953 12.1849728-16.0938206 35.6160011-5.9450579 34.921875 11.3867178 0 .0009766 0 .0546875-.0009766.0556641-.101944 2.8892879-.6959229 4.6429043-1.5903931 6.206665-3.8236694-1.1514282-7.6808472-2.2251587-11.5209351-3.2563477-2.9134274 1.2668076-2.9925079 1.1330948-3.067627 1.7236328-.036377.2909546-.0852661.6132202-.1333618.9335327v-4.1311646c.0820313-.0205078.1641235-.0512695.2359619-.0820313 5.3722248-2.1695385 1.9198685-10.716176-4.2988281-7.6948242-3.3477936 1.6308327-4.2856216 6.9105721.4719238 7.9512939v8.1975708c0 .9915771.803833 1.7954712 1.7954712 1.7954712.9915771 0 1.7954712-.803894 1.7954712-1.7954712v-2.8213501c.7267265 1.0523472 1.1553154 1.9142914 1.8660278 2.8900146.1987286.2727242.2964134.2010536 1.2265625.6259766.2236328.1025391.4521484.2080078.7041016.3046875.1923828.7099609.6845703 1.4033203 1.1669922 2.0087891.25.3134766.7041016.3779297 1.0302734.1386719.3034325-.2221298.7529144-.3690186 1.1923828-.5800781.3916245.3942909.9504662.9141655 1.2832031 1.2861328.1706963.1892509.3537483.2358818.5771484.2490234-1.2695313 1.9980469-1.8671875 3.7744141-1.8759766 5.5800781 0 1.9150429.5744171 3.5507851-.9853516 4.6777344-.7265625.5302734-1.6210938.8759766-2.5878906 1.0009766-4.3486328.5566406-9.2783203 1.1894531-13.9003906-.2695313-1.4960939-.4667958-2.5732423-1.7304677-2.8837892-3.3876942zm4.0726318 14.5522461c-.6077509-.4415703-.7262554-1.0222359-.4524536-1.6172485.7716789.1805115 1.5050411.2257156 2.3788452.0386353.4052734-.0869141.6630859-.4863281.5761719-.890625-.0878906-.40625-.4921875-.6621094-.890625-.5761719-.6621094.1445313-1.3525391.1113281-2.0039063-.0927734-.1557617-.0488281-.3110352-.0315552-.4549561.0160522-.4561949-.7037201-.2458973-1.5319252.3319092-1.9760132.0176392-.0136108.0258789-.0335083.0419922-.0483398 4.0442181.7723579 6.2398109.8829117 10.7167969.2006836.4091797-.0625.6904297-.4443359.6279297-.8544922-.0625-.4091797-.4521484-.6875-.8544922-.6279297-4.4755859.6826172-6.4755859.5400391-10.6005859-.2666016-.0603027-.0106812-.1191406-.0003052-.1785889.003479-.6292601-.6751671-.1527195-1.6669312.321167-2.4546509.0471191-.078125.0721436-.1624756.0882568-.2471313 4.4581261 1.0723343 8.7120361.5680847 13.2554932-.0136108.0184937-.0023804.0360107-.0078735.0545044-.010376.0197754.0508423.0309448.1038208.0626831.151001.5103111.7579613.9401073 2.019783.1962891 2.5458984-.2078857.1472168-.3043823.3815308-.3027954.6185303-.0931396.3032227.0042114.6419678.2783813.8326416.6870022.4786491.8855114 1.4375381.3100586 2.1470337-.5077114.229908-.5517521.7967606-.2836914 1.1361694.3283749.4147072.426321 1.0733261-.0549927 1.609314-4.3156128 1.2909545-9.4701538 1.4349974-13.1633911.3765258zm1.7510376 1.902832c3.0824852.4855652 6.1608524.3525696 9.2026367-.2214355-2.3843365 2.4802513-2.3705368 2.3079224-2.6450195 2.6013794-1.2153931.385376-2.6102905.4192505-4.1598511.0924072-.2731952-.4066849-.4413376-.2082711-2.3977661-2.4723511zm44.9507446-15.9570313c-4.8107452 5.8412399-13.8278198 2.3206825-14.0869141-4.7119141.0009766-.0019531.0009766-.0039063.0019341-.0058594.1289673-.4112129-.1122055-.8823776-.6103325-.9677734-1.9698524-.5410423-2.4353523-.8792305-4.1054688-1.3378906-.9646225-1.6966209-.9379425-1.8827209-1.3642578-2.0039063-.1015854-.0293655.1574135.0513649-3.8798828-1.1542969-.2626953-.0791016-.5458984-.0146484-.7441406.1738281-.2355499.2262688-.5334091.4293022-.8671875.6757813-.2517052-.3259773-.530323-.6458168-.7822266-1.0390625-.2615891-.4110641-.8062019-.4331436-1.1181641-.1689453-.2848473.240696-.5992889.4341774-.9365234.6777344-.4992371-.4955635-.9153748-.8838539-1.2119141-1.2128906-.2539063-.2802734-.6757813-.328125-.9873047-.1132813-.290596.2041283-.691515.3373566-1.1445313.5498047-.2568359-.3662109-.5292969-.8242188-.5380859-1.1464844-.0097656-.3222656-.2226563-.6015625-.53125-.6953125-.5881386-.1804504-1.1163216-.4863548-1.7353516-.7207031-.5052643-.7218075-.8902359-1.4247761-1.3916016-2.2041016.3315964-.1454353.768549-.3318787 1.265625-.5439453.2391968-.0664063.5076294-.1466064.7800293-.2470093 15.4323463 4.3380775 19.6035194 5.7426682 20.9279785 6.1356812.3291016.0957031.6845703-.0371094.8623047-.3320313.9423828-1.5722656 2.5732422-2.7607422 4.4951172-3.2685547 1.101223-.328722 2.4606857-.2097855 2.5693359-.2167969.1318359.0322266.2558594.0253906.4101563.0537109 2.8662109.4638672 5.4150391 2.6640625 6.3427734 5.4736328.9033205 2.7656252.2666018 6.0439455-1.620117 8.3505861z"/><path d="m56.1695862 40.9067535c-.3910332 3.4126511 4.2215271 4.8628311 6.09375 2.0371094.8896484-1.3408203.6611328-3.2490234-.5205078-4.34375-2.0857048-1.9274025-5.27137-.3359947-5.5732422 2.3066406zm3.1630859-1.6367187c.7611771-.1504631 1.652935.3365211 1.9013672 1.329895-.2339172 1.5651054-1.9677277 2.4635696-3.2032471 1.6842651-.0307007-.0193481-.053833-.048584-.0831909-.0699463-.7546196-1.0418243.0004921-2.6699218 1.3850708-2.9442138z"/><path d="m54.2359924 19.3481598c-.4072266.0751953-.6757813.4658203-.6005859.8740234l.8544922 4.6162109c.0664063.3613281.3818359.6132813.7363281.6132813.0458984 0 .0917969-.0039063.1376953-.0126953.4072266-.0751953.6757813-.4667969.6005859-.8740234l-.8544922-4.6162109c-.0751952-.4062501-.4589843-.678711-.8740234-.600586z"/><path d="m60.0006409 19.8803864-2.7539063 5.1210938c-.1953125.3642578-.0585938.8193359.3066406 1.015625.3576279.1928082.8162117.0634937 1.015625-.3066406l2.7519531-5.1191406c.1962891-.3652344.0595703-.8193359-.3046875-1.015625-.3652343-.1982423-.8193359-.060547-1.0156249.3046874z"/><path d="m65.5377502 23.7690582c-1.3359375 1.0449219-2.8203125 1.8691406-4.4121094 2.4521484-.9280319.340435-.4188004 1.7518997.515625 1.4082031 1.7392578-.6357422 3.3603516-1.5371094 4.8203125-2.6787109.3261719-.2548828.3837891-.7265625.1289063-1.0527344-.2539062-.3261718-.7265625-.3857421-1.0527344-.1289062z"/></g></svg>