<?xml version="1.0" encoding="UTF-8" standalone="no" ?>
<!DOCTYPE svg PUBLIC "-//W3C//DTD SVG 1.1//EN" "http://www.w3.org/Graphics/SVG/1.1/DTD/svg11.dtd">
<svg xmlns="http://www.w3.org/2000/svg" xmlns:xlink="http://www.w3.org/1999/xlink" version="1.1" width="1080" height="1080" viewBox="0 0 1080 1080" xml:space="preserve">
<desc>Created with Fabric.js 4.2.0</desc>
<defs>
</defs>
<g transform="matrix(1 0 0 1 540 540)" id="532c4a4d-64fe-4faa-aa78-db0146df6652"  >
<rect style="stroke: none; stroke-width: 1; stroke-dasharray: none; stroke-linecap: butt; stroke-dashoffset: 0; stroke-linejoin: miter; stroke-miterlimit: 4; fill: rgb(255,255,255); fill-opacity: 0; fill-rule: nonzero; opacity: 1;" vector-effect="non-scaling-stroke"  x="-540" y="-540" rx="0" ry="0" width="1080" height="1080" />
</g>
<g transform="matrix(1 0 0 1 540 540)" id="931f05fd-06aa-40ce-a628-7fdac54431d6"  >
</g>
<g transform="matrix(-2.43 0 0 -2.43 540 540)"  >
<g style="" vector-effect="non-scaling-stroke"   >
		<g transform="matrix(8 0 0 8 138.26 -53.74)"  >
<path style="stroke: none; stroke-width: 1; stroke-dasharray: none; stroke-linecap: butt; stroke-dashoffset: 0; stroke-linejoin: miter; stroke-miterlimit: 4; fill: rgb(190,186,185); fill-rule: nonzero; opacity: 1;" vector-effect="non-scaling-stroke"  transform=" translate(-49.28, -25.28)" d="M 56 34 C 55.488 34 54.977 33.805 54.586 33.414 L 41.15 19.979 C 40.369 19.198 40.369 17.932 41.15 17.151 C 41.931 16.37 43.196999999999996 16.37 43.978 17.151 L 57.414 30.586 C 58.195 31.366999999999997 58.195 32.632999999999996 57.414 33.414 C 57.023 33.804 56.512 34 56 34 z" stroke-linecap="round" />
</g>
		<g transform="matrix(8 0 0 8 138.26 53.74)"  >
<path style="stroke: none; stroke-width: 1; stroke-dasharray: none; stroke-linecap: butt; stroke-dashoffset: 0; stroke-linejoin: miter; stroke-miterlimit: 4; fill: rgb(190,186,185); fill-rule: nonzero; opacity: 1;" vector-effect="non-scaling-stroke"  transform=" translate(-49.28, -38.72)" d="M 42.564 47.435 C 42.052 47.435 41.541 47.24 41.15 46.849000000000004 C 40.369 46.068000000000005 40.369 44.80200000000001 41.15 44.021 L 54.586 30.586 C 55.367 29.805 56.632999999999996 29.805 57.414 30.586 C 58.19500000000001 31.366999999999997 58.195 32.632999999999996 57.414 33.414 L 43.979 46.849000000000004 C 43.588 47.239000000000004 43.076 47.435 42.564 47.435 z" stroke-linecap="round" />
</g>
		<g transform="matrix(8 0 0 8 40 0)"  >
<path style="stroke: none; stroke-width: 1; stroke-dasharray: none; stroke-linecap: butt; stroke-dashoffset: 0; stroke-linejoin: miter; stroke-miterlimit: 4; fill: rgb(190,186,185); fill-rule: nonzero; opacity: 1;" vector-effect="non-scaling-stroke"  transform=" translate(-37, -32)" d="M 56 34 L 18 34 C 16.896 34 16 33.104 16 32 C 16 30.896 16.896 30 18 30 L 56 30 C 57.104 30 58 30.896 58 32 C 58 33.104 57.104 34 56 34 z" stroke-linecap="round" />
</g>
		<g transform="matrix(8 0 0 8 -184 184)"  >
<path style="stroke: none; stroke-width: 1; stroke-dasharray: none; stroke-linecap: butt; stroke-dashoffset: 0; stroke-linejoin: miter; stroke-miterlimit: 4; fill: rgb(190,186,185); fill-rule: nonzero; opacity: 1;" vector-effect="non-scaling-stroke"  transform=" translate(-9, -55)" d="M 10 58 C 7.7940000000000005 58 6 56.206 6 54 C 6 52.896 6.896 52 8 52 C 9.104 52 10 52.896 10 54 L 10 54.003 C 11.104 54.003 12 54.897 12 56.002 C 12 57.107000000000006 11.104 58 10 58 z" stroke-linecap="round" />
</g>
		<g transform="matrix(8 0 0 8 -120 192)"  >
<path style="stroke: none; stroke-width: 1; stroke-dasharray: none; stroke-linecap: butt; stroke-dashoffset: 0; stroke-linejoin: miter; stroke-miterlimit: 4; fill: rgb(190,186,185); fill-rule: nonzero; opacity: 1;" vector-effect="non-scaling-stroke"  transform=" translate(-17, -56)" d="M 24 58 L 10 58 C 8.896 58 8 57.104 8 56 C 8 54.896 8.896 54 10 54 L 24 54 C 25.104 54 26 54.896 26 56 C 26 57.104 25.104 58 24 58 z" stroke-linecap="round" />
</g>
		<g transform="matrix(8 0 0 8 -192 0)"  >
<path style="stroke: none; stroke-width: 1; stroke-dasharray: none; stroke-linecap: butt; stroke-dashoffset: 0; stroke-linejoin: miter; stroke-miterlimit: 4; fill: rgb(190,186,185); fill-rule: nonzero; opacity: 1;" vector-effect="non-scaling-stroke"  transform=" translate(-8, -32)" d="M 8 56 C 6.896 56 6 55.104 6 54 L 6 10 C 6 8.896 6.896 8 8 8 C 9.104 8 10 8.896 10 10 L 10 54 C 10 55.104 9.104 56 8 56 z" stroke-linecap="round" />
</g>
		<g transform="matrix(8 0 0 8 -184 -184)"  >
<path style="stroke: none; stroke-width: 1; stroke-dasharray: none; stroke-linecap: butt; stroke-dashoffset: 0; stroke-linejoin: miter; stroke-miterlimit: 4; fill: rgb(190,186,185); fill-rule: nonzero; opacity: 1;" vector-effect="non-scaling-stroke"  transform=" translate(-9, -9)" d="M 7.999 12 C 6.894 12 6 11.104 6 10 C 6 7.7940000000000005 7.7940000000000005 6 10 6 C 11.104 6 12 6.896 12 8 C 12 9.104 11.104 10 10 10 L 9.997 10 C 9.997 11.104 9.104 12 7.999 12 z" stroke-linecap="round" />
</g>
		<g transform="matrix(8 0 0 8 -120 -192)"  >
<path style="stroke: none; stroke-width: 1; stroke-dasharray: none; stroke-linecap: butt; stroke-dashoffset: 0; stroke-linejoin: miter; stroke-miterlimit: 4; fill: rgb(190,186,185); fill-rule: nonzero; opacity: 1;" vector-effect="non-scaling-stroke"  transform=" translate(-17, -8)" d="M 24 10 L 10 10 C 8.896 10 8 9.104 8 8 C 8 6.896000000000001 8.896 6 10 6 L 24 6 C 25.104 6 26 6.896 26 8 C 26 9.104 25.104 10 24 10 z" stroke-linecap="round" />
</g>
</g>
</g>
</svg>