<svg version="1.2" xmlns="http://www.w3.org/2000/svg" viewBox="0 0 963 963" width="963" height="963">
	<title>right-arrow-svg</title>
	<style>
		.s0 { fill: #dbcab7 } 
		.s1 { fill: #000000 } 
	</style>
	<path id="Layer" class="s0" d="m481.5 794.5c-173.1 0-313-139.9-313-313 0-173.1 139.9-313 313-313 173.1 0 313 139.9 313 313 0 173.1-139.9 313-313 313z"/>
	<g id="Layer">
		<g id="Layer">
			<path id="Layer" fill-rule="evenodd" class="s1" d="m481.5 144.5c186.4 0 337.1 150.6 337.1 337 0 186.4-150.7 337-337.1 337-186.4 0-337-150.6-337-337 0-186.4 150.6-337 337-337zm-147.1 380.3l149.4 163.3c12.5 13.6 29.5 20.4 46.5 20.4 15.2 0 30.4-5.5 42.5-16.5 25.7-23.5 27.4-63.4 3.9-89l-110.5-120.7 113.9-124.1c23.6-25.7 21.8-65.6-3.8-89.1-25.6-23.5-65.5-21.7-89.1 3.9l-152.7 166.6c-22.1 24.1-22.1 61.1-0.1 85.2z"/>
		</g>
		<g id="Layer">
		</g>
		<g id="Layer">
		</g>
		<g id="Layer">
		</g>
		<g id="Layer">
		</g>
		<g id="Layer">
		</g>
		<g id="Layer">
		</g>
		<g id="Layer">
		</g>
		<g id="Layer">
		</g>
		<g id="Layer">
		</g>
		<g id="Layer">
		</g>
		<g id="Layer">
		</g>
		<g id="Layer">
		</g>
		<g id="Layer">
		</g>
		<g id="Layer">
		</g>
		<g id="Layer">
		</g>
	</g>
</svg>