<svg version="1.2" xmlns="http://www.w3.org/2000/svg" viewBox="0 0 300 300" width="300" height="300">
	<title>New Project</title>
	<defs>
		<linearGradient id="g1" x1="211.2" y1="276.5" x2="344.8" y2="126.6" gradientUnits="userSpaceOnUse">
			<stop offset="0" stop-color="#faf8f7"/>
			<stop offset=".6" stop-color="#594562"/>
			<stop offset="1" stop-color="#4a2e47"/>
		</linearGradient>
		<linearGradient id="g2" x1="210" y1="244" x2="322.6" y2="117.7" gradientUnits="userSpaceOnUse">
			<stop offset="0" stop-color="#a1776b"/>
			<stop offset=".2" stop-color="#68556f"/>
			<stop offset="1" stop-color="#e2d7d2"/>
		</linearGradient>
		<linearGradient id="g3" x1="88.8" y1="276.5" x2="-44.9" y2="126.6" gradientUnits="userSpaceOnUse">
			<stop offset="0" stop-color="#faf8f7"/>
			<stop offset=".6" stop-color="#594562"/>
			<stop offset="1" stop-color="#4a2e47"/>
		</linearGradient>
		<linearGradient id="g4" x1="90" y1="244" x2="-22.7" y2="117.7" gradientUnits="userSpaceOnUse">
			<stop offset="0" stop-color="#a1776b"/>
			<stop offset=".2" stop-color="#68556f"/>
			<stop offset="1" stop-color="#e2d7d2"/>
		</linearGradient>
		<linearGradient id="g5" x1="53.6" y1="244.3" x2="53.6" y2="53.5" gradientUnits="userSpaceOnUse">
			<stop offset="0" stop-color="#a97570"/>
			<stop offset=".2" stop-color="#724562"/>
			<stop offset="1" stop-color="#faf8f7"/>
		</linearGradient>
		<linearGradient id="g6" x1="56.4" y1="241.6" x2="56.4" y2="56.3" gradientUnits="userSpaceOnUse">
			<stop offset="0" stop-color="#d7a28b"/>
			<stop offset=".2" stop-color="#523454"/>
			<stop offset="1" stop-color="#faf8f7"/>
		</linearGradient>
		<linearGradient id="g7" x1="64.8" y1="233.1" x2="64.8" y2="64.7" gradientUnits="userSpaceOnUse">
			<stop offset="0" stop-color="#ece5e1"/>
			<stop offset="1" stop-color="#594062"/>
		</linearGradient>
		<linearGradient id="g8" x1="196.2" y1="226.9" x2="196.2" y2="109.7" gradientUnits="userSpaceOnUse">
			<stop offset="0" stop-color="#d7a28b"/>
			<stop offset=".2" stop-color="#8e6a81"/>
			<stop offset="1" stop-color="#faeed6"/>
		</linearGradient>
		<linearGradient id="g9" x1="216.4" y1="166.6" x2="216.4" y2="64.7" gradientUnits="userSpaceOnUse">
			<stop offset="0" stop-color="#d7a28b"/>
			<stop offset=".2" stop-color="#8e6a81"/>
			<stop offset="1" stop-color="#faeed6"/>
		</linearGradient>
		<linearGradient id="g10" x1="151" y1="272.3" x2="151" y2="165.4" gradientUnits="userSpaceOnUse">
			<stop offset="0" stop-color="#d7a28b"/>
			<stop offset=".2" stop-color="#8e6a81"/>
			<stop offset="1" stop-color="#faeed6"/>
		</linearGradient>
		<linearGradient id="g11" x1="238.6" y1="210.9" x2="241.6" y2="201.5" gradientUnits="userSpaceOnUse">
			<stop offset="0" stop-color="#faf8f7"/>
			<stop offset=".6" stop-color="#594562"/>
			<stop offset="1" stop-color="#4a2e47"/>
		</linearGradient>
		<linearGradient id="g12" x1="75.3" y1="178.5" x2="71.8" y2="171.2" gradientUnits="userSpaceOnUse">
			<stop offset="0" stop-color="#faf8f7"/>
			<stop offset=".6" stop-color="#594562"/>
			<stop offset="1" stop-color="#4a2e47"/>
		</linearGradient>
		<linearGradient id="g13" x1="112.3" y1="226.5" x2="112.3" y2="108.5" gradientUnits="userSpaceOnUse">
			<stop offset="0" stop-color="#d7a28b"/>
			<stop offset=".2" stop-color="#8e6a81"/>
			<stop offset="1" stop-color="#faeed6"/>
		</linearGradient>
		<linearGradient id="g14" x1="90" y1="165.1" x2="90" y2="64.6" gradientUnits="userSpaceOnUse">
			<stop offset="0" stop-color="#d7a28b"/>
			<stop offset=".2" stop-color="#8e6a81"/>
			<stop offset="1" stop-color="#faeed6"/>
		</linearGradient>
		<linearGradient id="g15" x1="159.4" y1="274.1" x2="159.4" y2="163.7" gradientUnits="userSpaceOnUse">
			<stop offset="0" stop-color="#d7a28b"/>
			<stop offset=".2" stop-color="#8e6a81"/>
			<stop offset="1" stop-color="#faeed6"/>
		</linearGradient>
		<radialGradient id="g16" cx="264.8" cy="143.3" r="11.8" gradientUnits="userSpaceOnUse">
			<stop offset=".5" stop-color="#a68f95"/>
			<stop offset="1" stop-color="#000000"/>
		</radialGradient>
		<radialGradient id="g17" cx="65.2" cy="85.4" r="11.8" gradientUnits="userSpaceOnUse">
			<stop offset=".5" stop-color="#a68f95"/>
			<stop offset="1" stop-color="#000000"/>
		</radialGradient>
		<radialGradient id="g18" cx="152.9" cy="217.5" r="28.7" gradientUnits="userSpaceOnUse">
			<stop offset="0" stop-color="#a68f95"/>
			<stop offset="1" stop-color="#000000"/>
		</radialGradient>
		<radialGradient id="g19" cx="247.7" cy="220.3" r="13.2" gradientUnits="userSpaceOnUse">
			<stop offset="0" stop-color="#a68f95"/>
			<stop offset="1" stop-color="#000000"/>
		</radialGradient>
		<radialGradient id="g20" cx="70.3" cy="222.8" r="13.5" gradientUnits="userSpaceOnUse">
			<stop offset="0" stop-color="#a68f95"/>
			<stop offset="1" stop-color="#000000"/>
		</radialGradient>
		<radialGradient id="g21" cx="249.4" cy="102" r="21.7" gradientUnits="userSpaceOnUse">
			<stop offset="0" stop-color="#a68f95"/>
			<stop offset="1" stop-color="#000000"/>
		</radialGradient>
		<radialGradient id="g22" cx="50.8" cy="157.3" r="20.6" gradientUnits="userSpaceOnUse">
			<stop offset="0" stop-color="#a68f95"/>
			<stop offset="1" stop-color="#000000"/>
		</radialGradient>
	</defs>
	<style>
		.s0 { fill: url(#g1) } 
		.s1 { fill: url(#g2) } 
		.s2 { fill: #ffffff } 
		.s3 { fill: url(#g3) } 
		.s4 { fill: url(#g4) } 
		.s5 { fill: url(#g5) } 
		.s6 { fill: url(#g6) } 
		.s7 { opacity: .5;mix-blend-mode: soft-light;fill: #ffffff } 
		.s8 { opacity: .8;mix-blend-mode: soft-light;fill: #ffffff } 
		.s9 { fill: url(#g7) } 
		.s10 { opacity: .3;mix-blend-mode: multiply;fill: #4e2f5f } 
		.s11 { fill: #955e84 } 
		.s12 { fill: #fff9ff } 
		.s13 { fill: url(#g8) } 
		.s14 { fill: url(#g9) } 
		.s15 { fill: url(#g10) } 
		.s16 { opacity: .5;mix-blend-mode: multiply;fill: #4e2f5f } 
		.s17 { mix-blend-mode: soft-light;fill: #ffffff } 
		.s18 { fill: url(#g11) } 
		.s19 { fill: url(#g12) } 
		.s20 { fill: url(#g13) } 
		.s21 { fill: url(#g14) } 
		.s22 { fill: url(#g15) } 
		.s23 { mix-blend-mode: color-dodge;fill: url(#g16) } 
		.s24 { mix-blend-mode: color-dodge;fill: url(#g17) } 
		.s25 { mix-blend-mode: color-dodge;fill: url(#g18) } 
		.s26 { mix-blend-mode: color-dodge;fill: url(#g19) } 
		.s27 { mix-blend-mode: color-dodge;fill: url(#g20) } 
		.s28 { mix-blend-mode: color-dodge;fill: url(#g21) } 
		.s29 { mix-blend-mode: color-dodge;fill: url(#g22) } 
	</style>
	<g id="&lt;Group&gt;">
		<g id="&lt;Group&gt;">
			<g id="&lt;Group&gt;">
				<path id="&lt;Path&gt;" class="s0" d="m170 71.7c1.3-1 130.6-105.3 126.3 6.1-2.8 72.8-70.5 124.5-103.3 142.5-0.6 0.3-1.2 0.7-1.8 1-8.6 4.6-15.5 7.4-19.8 9q-1.3 0.4-2.7 0.9-1.1 0.3-1.7 0.5-0.3 0.1-0.5 0.1-0.1 0.1-0.3 0.1l9.8-12.4c0 0 137.1-57.4 109.1-147-20.9-66.9-107 0.7-107 0.7l-12.5 2.2z"/>
				<path id="&lt;Path&gt;" class="s1" d="m165.6 75.4c1.2-1 134.5-112.8 130.7 2.4-2.4 72.8-70.5 124.5-103.3 142.5 60.2-34.1 127.4-120.2 89.7-168.2-32.2-41.1-107.3 19-107.3 19l-6.6 2.9z"/>
				<path id="&lt;Path&gt;" class="s2" d="m242.4 33.2c-3 1.6 4.3 6.7 15.1 5.5 11.7-1.4-1.6-12.7-15.1-5.5z"/>
			</g>
			<g id="&lt;Group&gt;">
				<path id="&lt;Path&gt;" class="s3" d="m134.4 75.4l-12.5-2.2c0 0-86.1-67.6-107-0.7-28 89.6 109 147 109 147l9.9 12.4q-0.2 0-0.3-0.1-0.3 0-0.5-0.1-0.7-0.2-1.7-0.5-1.4-0.5-2.8-0.9c-4.2-1.6-11.1-4.4-19.7-9-0.6-0.3-1.2-0.7-1.8-1-32.9-18-100.5-69.7-103.3-142.5-4.3-111.4 125-7.1 126.3-6.1z"/>
				<path id="&lt;Path&gt;" class="s4" d="m131.2 74l-6.6-2.9c0 0-75.1-60.1-107.3-19-37.7 48 29.5 134.1 89.7 168.2-32.9-18-100.9-69.7-103.3-142.5-3.8-115.2 129.5-3.4 130.7-2.4z"/>
				<path id="&lt;Path&gt;" class="s2" d="m57.6 33.2c3 1.6-4.3 6.7-15.1 5.5-11.7-1.4 1.6-12.7 15.1-5.5z"/>
			</g>
			<g id="&lt;Group&gt;">
				<path id="&lt;Path&gt;" class="s5" d="m153.9 244.3c-52.7 0-95.4-42.6-95.4-95.4 0-52.7 42.7-95.4 95.4-95.4 52.8 0 95.5 42.7 95.5 95.4 0 52.8-42.7 95.4-95.5 95.4z"/>
				<path id="&lt;Path&gt;" class="s6" d="m153.9 241.6c-51.2 0-92.6-41.4-92.6-92.7 0-51.2 41.4-92.6 92.6-92.6 51.3 0 92.7 41.4 92.7 92.6 0 51.3-41.4 92.7-92.7 92.7z"/>
				<path id="&lt;Path&gt;" class="s7" d="m158.8 56.3c56.5 0 66.4 34.1 65.3 36.8-1.2 2.7 1.6 32-8.3 17.4-9.9-14.7-27.1-34.5-59-34.3-31.9 0.2-41 10.7-54.2 21.1-13.1 10.3-13.4-7.8-12-14.6 0.6-2.7 11.7-26.4 68.2-26.4z"/>
				<path id="&lt;Path&gt;" class="s8" d="m83.5 209.1c0 0 27.3 28.7 70.4 28.7 43.2 0 70.5-28.7 70.5-28.7 0 0-24.8 32.5-70.5 32.5-45.6 0-70.4-32.5-70.4-32.5z"/>
				<path id="&lt;Path&gt;" class="s9" d="m153.9 233.1c-46.5 0-84.1-37.6-84.1-84.2 0-46.5 37.6-84.2 84.1-84.2 46.6 0 84.2 37.7 84.2 84.2 0 46.6-37.6 84.2-84.2 84.2z"/>
				<path id="&lt;Path&gt;" class="s10" d="m157.3 64.8c55.3 0 77.3 60.2 77.3 60.2 0 0-22.7-48-80.7-48-57.9 0-77.6 39.3-77.6 39.3 0 0 25.6-51.5 81-51.5z"/>
				<g id="&lt;Group&gt;" style="opacity: .5;mix-blend-mode: multiply">
					<path id="&lt;Path&gt;" class="s11" d="m77.5 146.8c1.9 4 4.2 7.7 6.8 11.3 2.5 3.6 5.3 7.1 8.3 10.3 6 6.4 13 11.9 20.8 15.8 3.8 2 7.9 3.6 12.1 4.8 4.2 1.3 8.6 1.9 12.9 2.4 8.8 0.7 17.7-0.1 26.3-2-8.5 2.4-17.4 3.5-26.3 3-8.9-0.6-17.7-3-25.7-7-7.9-4.1-15-9.7-20.9-16.4-5.9-6.6-10.8-14.1-14.3-22.2z"/>
					<path id="&lt;Path&gt;" class="s11" d="m90.6 181.2c3.1 3.6 6.5 6.9 10.2 9.9 3.6 2.9 7.6 5.6 11.8 7.6 4.2 2.2 8.7 3.5 13.3 4.2l3.5 0.4c1.2 0 2.4-0.1 3.6-0.1h1.7l1.8-0.3 3.5-0.5c-4.6 1.2-9.4 2.1-14.2 1.5-4.8-0.5-9.5-1.9-13.8-4-4.3-2.2-8.3-4.9-11.9-8-3.6-3.2-6.8-6.7-9.5-10.7z"/>
					<path id="&lt;Path&gt;" class="s11" d="m146.7 109.4c7.6-2 15.3-3.4 23.1-4.1 7.7-0.7 15.7-0.7 23.4 0.7 3.9 0.7 7.7 1.8 11.3 3.6 3.5 1.8 6.8 4.3 9.1 7.6 2.3 3.2 3.6 7.1 4 11 0.5 3.9-0.2 7.8-0.8 11.7 0.4-3.9 0.9-7.8 0.2-11.6-0.6-3.8-1.9-7.5-4.2-10.5-4.7-6.2-12.3-9.2-19.8-10.5-7.6-1.5-15.4-1.5-23.2-1q-5.8 0.4-11.6 1.2c-3.8 0.5-7.7 1.1-11.5 1.9z"/>
				</g>
				<g id="&lt;Group&gt;" style="mix-blend-mode: soft-light">
					<path id="&lt;Path&gt;" class="s12" d="m76.3 147.8c1.9 4 4.3 7.8 6.8 11.4 2.5 3.6 5.3 7 8.3 10.2 6 6.4 13 11.9 20.8 15.9 3.9 2 8 3.6 12.2 4.8 4.2 1.2 8.5 1.8 12.9 2.3 8.7 0.7 17.6-0.1 26.2-2-8.5 2.4-17.4 3.6-26.3 3-8.9-0.5-17.6-2.9-25.6-6.9-7.9-4.2-15-9.8-20.9-16.4-5.9-6.6-10.9-14.1-14.4-22.3z"/>
					<path id="&lt;Path&gt;" class="s12" d="m89.4 182.3c3.1 3.6 6.6 6.9 10.2 9.8 3.7 3 7.6 5.6 11.8 7.7 4.2 2.1 8.8 3.4 13.4 4.1l3.5 0.4c1.2 0 2.3-0.1 3.5-0.1h1.8l1.7-0.3 3.5-0.5c-4.5 1.3-9.3 2.1-14.1 1.5-4.8-0.5-9.5-1.8-13.8-3.9-4.3-2.2-8.3-4.9-11.9-8.1-3.6-3.2-6.9-6.7-9.6-10.6z"/>
					<path id="&lt;Path&gt;" class="s12" d="m145.6 110.4c7.5-2 15.2-3.4 23-4.1 7.8-0.7 15.7-0.6 23.5 0.7 3.8 0.7 7.7 1.8 11.2 3.6 3.6 1.8 6.8 4.3 9.1 7.6 2.4 3.2 3.6 7.1 4.1 11 0.4 4-0.2 7.9-0.9 11.7 0.5-3.9 0.9-7.8 0.2-11.6-0.5-3.8-1.9-7.5-4.2-10.5-4.6-6.1-12.3-9.2-19.8-10.5-7.6-1.4-15.4-1.4-23.1-1q-5.8 0.4-11.6 1.2c-3.9 0.5-7.7 1.1-11.5 1.9z"/>
				</g>
				<path id="&lt;Path&gt;" class="s2" d="m199.6 213.9c-22 5.1-3-14 4.4-13.8 7.5 0.2 2.9 12.2-4.4 13.8z"/>
				<path id="&lt;Path&gt;" class="s2" d="m112.9 69.1c-3.9 8.2 16.8-2.2 23.7-4.4 6.4-2.2-18.8-6.2-23.7 4.4z"/>
			</g>
			<g id="&lt;Group&gt;">
				<path id="&lt;Path&gt;" class="s13" d="m272.6 147.2c-4.6 23.7-27.3 51.1-51 68-6.9 4.9-14 8.9-20.6 11.7 1.2-1.4 39.9-45.9 51.6-79 11.5-32.9-1.3-36-0.7-38.9 0.3-1.6 8.3 1 14.4 8.7h0.1c5 6.3 8.8 15.9 6.2 29.5z"/>
				<path id="&lt;Path&gt;" class="s14" d="m245.8 155.2q0 0 0 0c-2.2 6.6-4.1 10.8-4.4 11.4 5.6-19.2 5-50.4-9.5-59.3 0 0-9.4-33.8-10.6-42.5-0.2-1.1-0.2-1.8-0.1-2 1.4-2.4 33.4 12.7 36.3 47.4 1.5 17-8.2 34.5-11.7 45z"/>
				<path id="&lt;Path&gt;" class="s15" d="m264.7 211.7c-4.1 16.5-65 21.6-83.4 32.9-15.3 9.3-13.2 13.8-10.4 15.5 0.7 0.3 1.4 0.6 1.9 0.7 2.7 0.4-2.1-7 6-9 8-1.9 8.3 7 6.1 9.9 0 0-7.1 11.4-18.4 11-9.3-0.4-12.9-22.9-9.3-35.5q0-0.1 0-0.1c0.8-2.6 1.9-4.9 3.3-6.4 8-8.5 42.7 1.6 70.4-23.3 26.8-24 33.6-39.3 35-42.6 0.5-1.2 1 2 1.3 7.2q0 0 0 0.1c0.5 10.3 0.2 28.8-2.5 39.6z"/>
				<path id="&lt;Path&gt;" class="s16" d="m264.7 211.7c-4.1 16.5-65 21.6-83.4 32.9-15.3 9.3-13.2 13.8-10.4 15.5 0 0-11.6-11.2-5.3-26.3 6.1-14.9 36.3 0 69.9-13.4 25.8-10.4 30.7-37.4 31.7-48.3 0.5 10.3 0.2 28.8-2.5 39.6z"/>
				<path id="&lt;Path&gt;" class="s16" d="m184.9 261.7c0 0-7.1 11.4-18.4 11-9.3-0.4-12.9-22.9-9.3-35.5 0 1-0.4 25.9 9.7 30.3 10.2 4.5 15.4-8.1 15.6-11 0.2-2.9-3.7-4.7-3.7-4.7 8-1.9 8.3 7 6.1 9.9z"/>
				<path id="&lt;Path&gt;" class="s16" d="m272.6 147.2c-4.6 23.7-27.3 51.1-51 68-5 2.7-9.1 4.5-11.1 4.7 0 0 41-38 51.9-62.3 10.7-23.8 3.9-39.9 3.9-39.9h0.1c5 6.3 8.8 15.9 6.2 29.5z"/>
				<path id="&lt;Path&gt;" class="s16" d="m245.8 155.2q0 0 0 0c-2.2 6.6-4.1 10.8-4.4 11.4 5.6-19.2 5-50.4-9.5-59.3 0 0-9.4-33.8-10.6-42.5h0.3c0 0 15.7 11.9 21.6 31 5.9 19.2 5.1 46.7 2.6 59.4z"/>
				<path id="&lt;Path&gt;" class="s7" d="m255.3 139.2c4.9-17 2.4-21.3 2.4-21.3 0 0 5-1.8 8.5 7.4 3.4 9.2-0.8 24.4-6.7 38-6 13.7-20.8 12.5-20.8 12.5 0 0 11.6-19.4 16.6-36.6z"/>
				<path id="&lt;Path&gt;" class="s7" d="m239 199.9c17.7-17.6 20.6-23.4 21.8-22.2 1.3 1.2 0.9 21.6-13.1 35.5-14.2 14.2-38.7 7.3-38.7 7.3 0 0 11.9-2.7 30-20.6z"/>
				<path id="&lt;Path&gt;" class="s7" d="m255.8 100.1c0.3 11.3-7.2 31.5-10 7-2.7-24.3-19-37.7-19-37.7 14.2 3.5 28.7 19.5 29 30.7z"/>
				<path id="&lt;Path&gt;" class="s2" d="m192 226.6c0 0 32.2 0.5 51.5-13.1 19-13.4 22.9-35.2 22.9-35.2 0 0-0.9 28.3-26.1 40.2-22.5 10.5-48.3 8.1-48.3 8.1z"/>
				<path id="&lt;Path&gt;" class="s2" d="m268.3 127.9c0 0-0.2 9.2-4.2 23.3-4.1 14.2-31.3 46.2-31.3 46.2 44.7-42.6 35.5-69.5 35.5-69.5z"/>
				<path id="&lt;Path&gt;" class="s2" d="m226.8 69.4c0 0 21.4 17.8 20.8 67.6 0 0 6.8-44.8-20.8-67.6z"/>
				<path id="&lt;Path&gt;" class="s17" d="m157.4 242.6c1.4 11 5.5-8.2 10.3-12 4.8-3.8-10.4-6.4-10.3 12z"/>
				<path id="&lt;Path&gt;" class="s16" d="m199 237.2c-24.2 7.3-29.5 17.7-33.1 11.9-3.7-5.7 0-17.3 4.7-19.7 13.7-7.1 52 0.6 28.4 7.8z"/>
				<path id="&lt;Path&gt;" class="s2" d="m268.1 137.8c-3.2-10.1-5.1 11.3-4 13.4 1.1 2.1 5.6-8.1 4-13.4z"/>
				<path id="&lt;Path&gt;" class="s2" d="m234.7 72.6c-3.3-0.8 4.8 18.3 8.5 20.7 3.7 2.4 6.3-17-8.5-20.7z"/>
				<path id="&lt;Path&gt;" class="s2" d="m163.8 265.2c-2.1-6.2 8.6-1.5 13.2-3.6 4.6-2.1 0 7.1-6.3 6.9-6.2-0.3-6.9-3.3-6.9-3.3z"/>
			</g>
			<g id="&lt;Group&gt;">
				<path id="&lt;Path&gt;" class="s18" d="m253.4 203.4c-3.5-2.3-11.1 3.7-10.1 10.7 0.9 7 18.1-5.5 10.1-10.7z"/>
				<path id="&lt;Path&gt;" class="s16" d="m252.9 203.2c4.2 1.3 2.7 6.7-0.2 8.5-2.9 1.7-8.6-0.3-6.9-4.7 0 0 2.9-5.2 7.1-3.8z"/>
				<path id="&lt;Path&gt;" class="s2" d="m243.5 210.6c2.1-2.4 4.4 1.9 6.5 2.7 2 0.8-2.9 4.2-5.1 2.8-2.2-1.3-1.4-5.5-1.4-5.5z"/>
			</g>
			<g id="&lt;Group&gt;">
				<path id="&lt;Path&gt;" class="s19" d="m78.9 166.5c-3.1 0.5-4 7.6 0.1 10.9 4 3.2 6.8-12.2-0.1-10.9z"/>
				<path id="&lt;Path&gt;" class="s16" d="m78.5 166.6c3-1.5 4.9 2.2 4.3 4.6-0.7 2.4-4.7 4.3-6.1 1.1 0 0-1.1-4.3 1.8-5.7z"/>
				<path id="&lt;Path&gt;" class="s2" d="m77.3 175.4c-0.1-2.3 3.4-1.3 4.8-1.9 1.5-0.6 0.7 3.7-1.2 4.1-1.9 0.4-3.6-2.2-3.6-2.2z"/>
			</g>
			<g id="&lt;Group&gt;">
				<path id="&lt;Path&gt;" class="s20" d="m40.2 116.4l0.1-0.1c6.1-7.5 14.1-10.1 14.4-8.5 0.6 2.8-12.2 5.9-0.5 38.5 12 33.3 52 78.8 53.3 80.2-6.9-2.8-14.2-7-21.4-12.1-24.3-17.4-47.5-45.2-52.1-68.9-2.6-13.5 1.2-23 6.2-29.1z"/>
				<path id="&lt;Path&gt;" class="s21" d="m49.1 109c2.8-33.9 34.6-48.5 36.1-46.2 0.1 0.2 0.1 0.9-0.1 1.9-1.1 8.5-10.3 41.6-10.3 41.6-14.5 8.7-14.9 39.6-9.2 58.8-0.3-0.6-2.3-4.8-4.5-11.4q-0.1-0.1-0.1-0.1c-3.5-10.5-13.3-27.8-11.9-44.6z"/>
				<path id="&lt;Path&gt;" class="s22" d="m39.5 170.4q0-0.1 0-0.1c0.3-5.2 0.7-8.4 1.2-7.2 1.4 3.3 8.5 18.7 35.9 43.3 28.6 25.7 64.4 15.6 72.8 24.5 1.5 1.6 2.7 3.9 3.5 6.6q0 0 0 0.1c4 13.1 0.8 36.5-8.9 36.7-11.8 0.3-19.4-11.6-19.4-11.6-2.3-3-2.1-12.2 6.2-10.2 8.4 2.1 3.6 9.8 6.4 9.3 0.5 0 1.2-0.3 1.9-0.6 2.9-1.7 5-6.4-11-16.2-19.2-11.8-81.8-17.7-86.1-34.6-2.7-11-3-29.7-2.5-40z"/>
				<path id="&lt;Path&gt;" class="s16" d="m39.5 170.4c0.9 10.9 6 38.3 32.4 49.1 34.7 14.2 65.7-0.9 72.3 14.5 6.8 15.7-5.1 27.2-5.1 27.2 2.9-1.7 5-6.4-11-16.2-19.2-11.8-81.8-17.7-86.1-34.6-2.7-11-3-29.7-2.5-40z"/>
				<path id="&lt;Path&gt;" class="s16" d="m130.8 252.5c0 0-4.1 1.8-3.8 4.8 0.3 3 5.9 16.2 16.5 11.7 10.4-4.5 9.5-30.3 9.4-31.4 4 13.1 0.8 36.5-8.9 36.7-11.8 0.3-19.4-11.6-19.4-11.6-2.3-3-2.1-12.2 6.2-10.2z"/>
				<path id="&lt;Path&gt;" class="s16" d="m40.2 116.4l0.1-0.1c0 0-6.8 15.9 4 39.6 11.1 24.5 53.4 63.4 53.4 63.4-2.2-0.2-6.4-2.2-11.6-4.9-24.3-17.4-47.5-45.2-52.1-68.9-2.6-13.5 1.2-23 6.2-29.1z"/>
				<path id="&lt;Path&gt;" class="s16" d="m63.4 94.9c5.8-18.7 21.4-30.2 21.4-30.2h0.3c-1.1 8.5-10.3 41.6-10.3 41.6-14.5 8.7-14.9 39.6-9.2 58.8-0.3-0.6-2.3-4.8-4.5-11.4q-0.1-0.1-0.1-0.1c-2.5-12.7-3.5-39.8 2.4-58.7z"/>
				<path id="&lt;Path&gt;" class="s7" d="m68.4 174.3c0 0-15 1.1-21.2-12.7-6-13.5-10.2-28.7-6.8-37.8 3.5-9 8.6-7.2 8.6-7.2 0 0-2.6 4.2 2.4 21.1 5.1 17.1 17 36.6 17 36.6z"/>
				<path id="&lt;Path&gt;" class="s7" d="m99.2 219.9c0 0-25.1 6.8-39.8-7.8-14.3-14.2-14.7-34.8-13.5-36 1.3-1.3 4.2 4.6 22.3 22.5 18.7 18.5 31 21.3 31 21.3z"/>
				<path id="&lt;Path&gt;" class="s7" d="m79.7 69.2c0 0-16.2 13-18.9 36.7-2.6 24.2-10.2 4.3-10-6.8 0.3-10.9 14.7-26.5 28.9-29.9z"/>
				<path id="&lt;Path&gt;" class="s2" d="m67 217.5c-25.7-12.2-26.7-40.9-26.7-40.9 0 0 4 22 23.4 35.8 19.9 14.2 53 13.9 53 13.9 0 0-26.5 2.3-49.7-8.8z"/>
				<path id="&lt;Path&gt;" class="s2" d="m74.6 196.2c0 0-27.8-32.4-32-46.6-4.1-14.1-4.3-23.2-4.3-23.2 0 0-9.2 26.7 36.3 69.8z"/>
				<path id="&lt;Path&gt;" class="s2" d="m79.7 69.2c0 0-21.3 17.3-20.6 66.3 0 0-7-44.1 20.6-66.3z"/>
				<path id="&lt;Path&gt;" class="s17" d="m152.9 243.1c-1.2 11.4-6-8.5-11-12.4-5-4 10.6-6.5 11 12.4z"/>
				<path id="&lt;Path&gt;" class="s16" d="m138.9 229.4c4.9 2.6 8.9 14.5 5.3 20.5-3.7 5.9-9.4-5-34.5-12.8-24.5-7.6 14.9-15.1 29.2-7.7z"/>
				<path id="&lt;Path&gt;" class="s2" d="m38.6 136.2c3.1-9.9 5.1 11.3 4 13.4-1.1 2-5.7-8.1-4-13.4z"/>
				<path id="&lt;Path&gt;" class="s2" d="m71.8 72.3c3.2-0.8-4.7 17.8-8.4 20.1-3.7 2.4-6.4-16.5 8.4-20.1z"/>
				<path id="&lt;Path&gt;" class="s2" d="m139.5 269.9c-6.5 0.2-11.5-9.4-6.7-7.2 4.9 2.3 16-2.5 13.8 3.9 0 0-0.6 3.1-7.1 3.3z"/>
			</g>
			<path id="&lt;Path&gt;" class="s23" d="m261.5 155.5c-3.4-0.9-4.7-7.1-2.9-13.8 1.8-6.8 6-11.5 9.5-10.5 3.4 0.9 4.7 7.1 2.9 13.8-1.8 6.7-6.1 11.4-9.5 10.5z"/>
			<path id="&lt;Path&gt;" class="s24" d="m62 97.6c-3.4-0.9-4.7-7.1-2.9-13.8 1.8-6.8 6-11.5 9.4-10.6 3.4 1 4.7 7.1 2.9 13.9-1.8 6.7-6 11.4-9.4 10.5z"/>
		</g>
		<path id="&lt;Path&gt;" class="s25" d="m152.9 230.2c-15.9 0-28.7-5.7-28.7-12.7 0-7 12.8-12.6 28.7-12.6 15.8 0 28.7 5.6 28.7 12.6 0 7-12.9 12.7-28.7 12.7z"/>
		<path id="&lt;Path&gt;" class="s26" d="m261 215.2c1.3 3.2-3.7 8.2-11 11-7.3 2.9-14.3 2.5-15.6-0.7-1.2-3.2 3.7-8.2 11-11 7.4-2.9 14.4-2.6 15.6 0.7z"/>
		<path id="&lt;Path&gt;" class="s27" d="m84.1 226.5c-0.9 3.3-7.8 4.4-15.4 2.4-7.6-2.1-13.1-6.5-12.2-9.8 0.9-3.4 7.8-4.4 15.4-2.4 7.7 2 13.1 6.4 12.2 9.8z"/>
		<path id="&lt;Path&gt;" class="s28" d="m243 79.8c5.4-1.6 12.7 7.1 16.2 19.4 3.5 12.2 1.9 23.4-3.5 24.9-5.4 1.6-12.6-7.1-16.1-19.3-3.5-12.3-2-23.5 3.4-25z"/>
		<path id="&lt;Path&gt;" class="s29" d="m37.7 138.3c4.6-3.2 14.2 2.7 21.5 13.2 7.2 10.5 9.3 21.6 4.7 24.8-4.6 3.1-14.2-2.8-21.5-13.2-7.2-10.5-9.3-21.6-4.7-24.8z"/>
	</g>
</svg>