<?xml version="1.0" encoding="UTF-8" standalone="no" ?>
<!DOCTYPE svg PUBLIC "-//W3C//DTD SVG 1.1//EN" "http://www.w3.org/Graphics/SVG/1.1/DTD/svg11.dtd">
<svg xmlns="http://www.w3.org/2000/svg" xmlns:xlink="http://www.w3.org/1999/xlink" version="1.1" width="1080" height="1080" viewBox="0 0 1080 1080" xml:space="preserve">
<desc>Created with Fabric.js 4.2.0</desc>
<defs>
</defs>
<rect x="0" y="0" width="100%" height="100%" fill="transparent"></rect>
<g transform="matrix(1 0 0 1 540 540)" id="2aaeeec7-a209-494a-bd21-f8c3dd1cbb8c"  >
<rect style="stroke: none; stroke-width: 1; stroke-dasharray: none; stroke-linecap: butt; stroke-dashoffset: 0; stroke-linejoin: miter; stroke-miterlimit: 4; fill: rgb(255,255,255); fill-opacity: 0; fill-rule: nonzero; opacity: 1;" vector-effect="non-scaling-stroke"  x="-540" y="-540" rx="0" ry="0" width="1080" height="1080" />
</g>
<g transform="matrix(1 0 0 1 540 540)" id="bd028cad-7521-4f1c-84af-d6da40053cc5"  >
</g>
<g transform="matrix(2.01 0 0 2.01 540 540)"  >
<g style="" vector-effect="non-scaling-stroke"   >
		<g transform="matrix(7.53 0 0 7.53 -9.65 -234.08)"  >
<path style="stroke: none; stroke-width: 1; stroke-dasharray: none; stroke-linecap: butt; stroke-dashoffset: 0; stroke-linejoin: miter; stroke-miterlimit: 4; fill: rgb(188,186,185); fill-rule: nonzero; opacity: 1;" vector-effect="non-scaling-stroke"  transform=" translate(-32.72, -2.91)" d="M 33.2077866 4.5256329 C 33.5905991 4.3684063 33.7732163 3.9299294999999996 33.6155014 3.5471169999999996 C 33.406517 3.0383278999999996 33.2878647 2.5021951 33.2629623 1.9553200999999996 C 33.2186775 0.9403704999999996 31.721031099999998 1.0446929999999996 31.764917299999997 2.0217263999999995 C 31.7971439 2.7434060999999996 31.952905599999998 3.4484841999999993 32.228782599999995 4.1174298 C 32.387966199999994 4.5049448 32.831500999999996 4.6824188 33.2077866 4.5256329 z" stroke-linecap="round" />
</g>
		<g transform="matrix(7.53 0 0 7.53 50.57 -237.88)"  >
<path style="stroke: none; stroke-width: 1; stroke-dasharray: none; stroke-linecap: butt; stroke-dashoffset: 0; stroke-linejoin: miter; stroke-miterlimit: 4; fill: rgb(188,186,185); fill-rule: nonzero; opacity: 1;" vector-effect="non-scaling-stroke"  transform=" translate(-40.72, -2.41)" d="M 40.4084702 4.1662579 C 40.729271 4.1662579 41.026146 3.9592264 41.125267099999995 3.6359841999999998 L 41.742942899999996 1.6164528999999996 C 41.86403669999999 1.2199684999999996 41.641380399999996 0.8010231999999996 41.2453843 0.6799294999999996 C 40.8493882 0.5578591999999997 40.429954599999995 0.7805153999999996 40.3083726 1.1769997999999997 L 39.6906968 3.1965310999999996 C 39.543327299999994 3.6790489999999996 39.9044762 4.1662579 40.4084702 4.1662579 z" stroke-linecap="round" />
</g>
		<g transform="matrix(7.53 0 0 7.53 108.63 -213.76)"  >
<path style="stroke: none; stroke-width: 1; stroke-dasharray: none; stroke-linecap: butt; stroke-dashoffset: 0; stroke-linejoin: miter; stroke-miterlimit: 4; fill: rgb(188,186,185); fill-rule: nonzero; opacity: 1;" vector-effect="non-scaling-stroke"  transform=" translate(-48.43, -5.61)" d="M 48.0486069 6.911375 C 48.720970200000004 6.5480937 49.315696700000004 6.0285625 49.768821700000004 5.411375 C 50.013450600000006 5.077390599999999 49.941185000000004 4.608640599999999 49.607200600000006 4.3635234 C 49.27468110000001 4.1174296 48.80446620000001 4.1906718000000005 48.558860800000005 4.5246562 C 48.236595200000004 4.9641093 47.8132553 5.33325 47.33473970000001 5.5930156 C 46.97048190000001 5.7902812 46.83473970000001 6.2453594 47.03200530000001 6.609617200000001 C 47.229721100000006 6.973750600000001 47.685352300000005 7.1086597000000005 48.04860690000001 6.9113750000000005 z" stroke-linecap="round" />
</g>
		<g transform="matrix(7.53 0 0 7.53 -16.86 16.25)"  >
<path style="stroke: none; stroke-width: 1; stroke-dasharray: none; stroke-linecap: butt; stroke-dashoffset: 0; stroke-linejoin: miter; stroke-miterlimit: 4; fill: rgb(188,186,185); fill-rule: nonzero; opacity: 1;" vector-effect="non-scaling-stroke"  transform=" translate(-31.76, -36.16)" d="M 41.3945541 5.7073345 C 40.3272514 5.3041196 39.5814857 5.1355343 38.792259200000004 5.0383282 C 34.614036500000005 4.5412579 30.190210300000004 6.552976599999999 27.782495500000003 10.058836 C 25.340112700000002 13.6135235 25.013940800000004 18.5686016 26.971460300000004 22.3889141 C 28.392021100000004 25.1737766 30.408889700000003 27.1028442 30.602319700000002 30.1311016 C 30.688257200000002 31.4787579 30.942163500000003 32.9680138 32.1745834 33.7932091 C 32.2025985 33.811946899999995 32.2348251 33.81567 32.264244000000005 33.8301964 L 32.30446620000001 33.9045372 C 32.012390100000005 34.5088348 31.88393020000001 35.113636 32.02565760000001 35.7708702 C 31.59755890000001 35.537593799999996 31.12600130000001 35.414668999999996 30.66872590000001 35.4582481 C 29.25124540000001 35.612545 28.56911650000001 37.002193399999996 28.24294460000001 37.6672325 C 27.761011000000007 38.6389122 27.269311800000008 39.600826299999994 26.77907740000001 40.5598106 C 24.95632350000001 44.123348199999995 23.093713600000008 47.7926597 21.906824000000007 51.7673912 C 21.488305900000007 51.1310387 20.930017400000008 50.8057823 20.209741500000007 50.8117638 C 19.614709800000007 50.8250695 19.041040300000006 51.093257900000005 18.592248800000007 51.5485192 C 18.166061300000006 51.6494141 13.375267900000008 53.4970284 13.275170200000007 53.5353966 C 12.504333400000007 53.8289566 12.711275000000008 54.985591899999996 13.542748300000007 54.985591899999996 C 13.788094400000007 54.985591899999996 13.478439200000008 55.0338211 17.65700710000001 53.4783287 C 17.252530900000007 55.3145866 17.04392420000001 57.5118179 17.366479800000008 59.408443399999996 C 17.72858800000001 61.538970899999995 18.79512400000001 63.576972899999994 20.536340600000006 64.7805175 C 19.303497200000006 65.2215728 18.020753700000007 65.6951217 17.394800100000005 65.8859863 C 16.998804000000003 66.0070801 16.775659500000003 66.4270019 16.896753200000006 66.8225097 C 17.013879700000007 67.2063598 17.419555600000006 67.4428863 17.833276600000005 67.3215331 C 18.078235500000005 67.2466353 22.627040700000006 65.6731109 22.793542700000003 65.52282699999999 C 23.512048600000004 65.4976195 24.165429900000003 65.21014389999999 24.617517300000003 64.7351683 C 25.744470400000004 65.1193236 27.457055900000004 65.3713988 28.185998700000003 65.4969481 C 30.617273100000002 65.9156493 33.106590100000005 66.0808104 35.555259500000005 65.781494 C 42.03685360000001 64.9892043 46.713847900000005 60.4203299 47.26607490000001 57.361385199999994 C 47.346397200000006 56.916560999999994 47.285362000000006 56.49877529999999 47.14095280000001 56.098018499999995 C 47.09448220000001 55.40721119999999 46.68119020000001 54.734760099999995 45.68849920000001 54.283626399999996 C 46.26793260000001 53.76327499999999 46.63075230000001 53.1912306 47.00026680000001 52.78930269999999 C 48.40885520000001 51.250591199999995 48.20440650000001 49.287494499999994 46.87026190000001 48.3450278 C 47.68510410000001 46.8870581 47.12112020000001 45.298805099999996 45.91530580000001 44.537471599999996 C 47.44371000000001 42.6515005 45.90414780000001 40.670246 43.87715880000001 40.5303305 C 44.04041260000001 40.1833609 44.14995540000001 39.7614401 44.02217830000001 39.2454184 C 43.89754450000001 38.6989172 44.00508460000001 38.712936299999996 44.21382870000001 38.525813899999996 C 45.14617890000001 37.4901236 44.63848840000001 36.084884499999994 44.04927790000001 36.205501399999996 C 44.671001100000005 35.692008799999996 44.947391200000006 34.6836394 44.37471740000001 33.8561972 C 44.37313050000001 33.8539999 44.37093320000001 33.8518027 44.36934630000001 33.849605399999994 C 44.87789120000001 33.55285249999999 45.33882870000001 33.13958339999999 45.46437800000001 32.80028899999999 C 45.98421440000001 31.396116099999993 45.70040090000001 29.88220009999999 46.36635550000001 28.418515999999993 C 47.00362360000001 27.017881199999994 48.01271780000001 25.815793799999994 48.83364070000001 24.52282509999999 C 50.99312560000001 21.121702099999993 51.32692680000001 16.796994999999992 49.721458100000014 13.083677199999991 C 48.09528730000002 9.322289499999991 45.729766800000014 6.868433999999992 41.394554100000015 5.707334499999991 z M 32.6213608 44.4269981 C 32.912132299999996 43.561222 33.2393952 42.7143325 33.468894999999996 41.8541221 C 34.030612999999995 42.6003532 34.6089364 43.3811149 35.250267099999995 43.9992637 C 35.282798799999995 44.060482 35.340843299999996 44.0936241 35.3864976 44.1417198 C 34.3941003 44.584919 33.249290599999995 45.1358414 32.1594468 45.4738731 C 32.2745781 45.211853 32.4956436 44.8003883 32.6213608 44.4269981 z M 36.649497999999994 43.558773 C 36.622879 43.334404 36.501174899999995 43.1152801 36.37184909999999 42.996334000000004 C 35.36858749999999 42.065052 34.36229709999999 40.39555730000001 33.94264989999999 40.10180270000001 C 33.88301859999999 40.06145850000001 33.81331639999999 39.959834900000004 33.77278909999999 39.825130300000005 C 33.78066259999999 39.649776300000006 33.77846539999999 39.49291590000001 33.76857769999999 39.35869960000001 C 33.78310409999999 39.30987150000001 33.799766699999985 39.25902920000001 33.833274999999986 39.20727140000001 C 33.998897699999986 38.95104960000001 33.972824299999985 38.51004770000001 33.63527699999999 38.23693450000001 C 33.58986679999999 38.01916110000001 33.519493299999986 37.808589800000014 33.444542099999985 37.59643160000001 C 33.46712509999998 37.384151300000006 33.558067499999986 37.17522800000001 33.68825549999998 37.06664640000001 C 33.886497699999985 36.90258390000001 33.986107099999984 36.64672450000001 33.95241569999998 36.39184170000001 C 33.922924299999984 36.290595800000006 33.96268109999998 35.97521570000001 33.62917349999998 35.732662000000005 C 33.52077509999998 35.654537000000005 33.45339219999998 35.43090420000001 33.47048209999998 35.1848104 C 33.485130499999975 34.87621660000001 33.648704799999976 34.5490682 33.80690789999998 34.2707479 C 33.80788449999998 34.2687948 33.80886099999998 34.26684160000001 33.81032589999998 34.264888500000005 C 36.08077269999998 34.614375800000005 38.93563109999998 34.55816240000001 41.23073609999998 34.305721000000005 C 41.35136829999998 34.5211637 41.52196529999998 34.858527900000006 41.54616579999998 35.10375570000001 C 41.61914859999998 35.76643730000001 41.162411099999986 35.56925180000001 41.12087279999998 36.170162000000005 C 41.13709289999998 36.35596830000001 41.00268579999998 36.6369589 41.40749389999998 36.9865683 C 41.672405599999976 37.2164572 41.776306499999976 37.6776083 41.567650199999974 38.0539511 C 41.43288459999997 38.1379355 41.326439299999976 38.2629355 41.26638069999998 38.4143027 C 41.03991739999998 38.9853858 41.530147899999974 39.0970801 41.45583379999998 39.6467246 C 41.42472489999998 39.9142569 41.32611879999998 39.9268989 41.23610719999998 40.1105918 C 41.09059939999998 40.3879356 41.12917359999998 40.738521500000004 41.357200999999975 40.9768027 C 41.38967169999997 41.0109824 41.431663899999975 41.0271567 41.468468099999974 41.0538291 C 41.462543499999974 41.0566406 38.75402069999998 42.5581398 36.64949799999997 43.558773 z M 36.60671229999999 25.074461000000003 C 37.235130299999994 25.2453594 37.89723959999999 25.293211000000003 38.55300139999999 25.233640700000002 C 38.51583099999999 27.837217400000004 38.774803199999994 30.429319400000004 39.04122159999999 32.9681969 C 38.25661469999999 33.004879 37.452171299999996 33.014949800000004 36.65682219999999 32.9934044 C 36.41860199999999 30.0513897 36.44716639999999 28.028989800000005 36.60671229999999 25.074461000000003 z M 28.30690959999999 21.7062969 C 26.59304239999999 18.3615703 26.87917519999999 14.021726600000001 29.01882369999999 10.908445300000002 C 31.10758409999999 7.867333800000003 35.04933169999999 5.956229600000002 39.05153659999999 6.591062500000002 C 42.50222019999999 7.174070300000002 45.65895849999999 9.693601600000003 47.09352879999999 13.011960900000002 C 48.06227879999999 15.250242200000002 48.18825539999999 17.931882800000004 47.44704439999999 20.567625000000003 C 46.13660819999999 25.338760300000004 42.73902129999999 26.697317100000003 42.69802099999999 31.1867656 C 42.69378669999999 31.6830959 42.70492179999999 32.379394500000004 42.28511819999999 32.6450156 C 41.97265629999999 32.6884421 41.919353599999994 32.7402915 40.539146499999994 32.8668784 C 40.26198589999999 30.231931599999996 39.9915391 27.538328099999998 40.061302299999994 24.868406199999995 C 42.03211219999999 24.085672299999995 43.35269939999999 22.120199099999994 43.49733749999999 20.062742099999994 C 43.72846239999999 16.778053199999995 39.52160659999999 16.327850199999993 38.787376599999995 21.872312399999995 C 38.70632189999999 22.488523299999994 38.648216399999995 23.103757699999996 38.609642199999996 23.719968699999995 C 37.9568102 23.816648399999995 37.28493519999999 23.754148399999995 36.678978099999995 23.524656199999995 C 36.81515519999999 17.446399599999996 32.747341299999995 17.596555599999995 32.86452499999999 20.415281199999995 C 32.93093129999999 22.010984299999997 33.804466399999995 23.517820299999997 35.140892199999996 24.410398399999995 C 34.970615599999995 27.513240699999994 34.89510739999999 29.673644899999996 35.146934699999996 32.9119834 C 34.3866198 32.8444175 33.6725084 32.739620099999996 33.05025499999999 32.588130899999996 C 33.03475209999999 32.575862799999996 33.02626819999999 32.558284699999994 33.00954459999999 32.547115299999994 C 32.31911489999999 32.08520119999999 32.161888299999994 31.017820299999993 32.099388299999994 30.035398499999996 C 31.876106299999993 26.545558899999996 29.688466999999996 24.413692499999996 28.306909599999994 21.706296899999998 z M 40.15749359999999 23.136961000000003 C 40.27181629999999 21.829397200000002 40.43605419999999 20.168329300000003 41.33913419999999 19.359617200000002 C 41.51930999999999 19.199460900000002 41.68288419999999 19.136960900000002 41.76247399999999 19.136960900000002 C 42.23765949999999 19.136961000000003 42.16957859999999 21.817409500000004 40.15749359999999 23.136961000000003 z M 35.15798189999999 22.407468800000004 C 34.50561529999999 21.591333400000003 34.29783249999999 20.579456300000004 34.37624359999999 20.116453200000002 C 34.876392399999986 20.565181700000004 35.106479599999986 21.716367700000003 35.15798189999999 22.407468800000004 z M 45.03835299999999 43.056881000000004 C 44.908672399999986 43.9591294 42.758060499999985 45.074585000000006 42.005638199999986 45.612545100000006 C 41.65102009999998 45.87736900000001 40.844806699999985 46.083297800000004 40.31423189999999 46.32543570000001 C 39.93727879999999 46.496334100000006 39.77028659999999 46.940670100000006 39.94118499999999 47.31762320000001 C 40.11208339999999 47.69555290000001 40.55739589999999 47.863521600000006 40.93434909999999 47.690670100000006 C 41.50005339999999 47.4351922 42.303993299999995 47.264198400000005 42.890403799999994 46.823482600000006 C 43.1811982 46.61650480000001 44.03779229999999 46.12073910000001 44.722068799999995 45.6257287 C 44.782310499999994 45.6575891 44.84096529999999 45.692440100000006 44.9109116 45.70727170000001 C 45.328880399999996 45.79516230000001 45.7888413 46.45727170000001 45.7600327 46.92797480000001 C 45.678272299999996 48.23838430000001 44.827858 48.20906840000001 40.7937241 50.27953730000001 C 40.0976868 50.637237600000006 40.3512726 51.69652950000001 41.1369858 51.69652950000001 C 41.3943215 51.69652950000001 41.124176 51.78356180000001 45.7686997 49.465084200000014 C 46.5259362 49.70361720000001 46.8028794 50.783352000000015 45.8938218 51.77563110000001 C 45.732689 51.95238890000001 45.570579599999995 52.15551390000001 45.4035874 52.364498300000015 C 44.544792199999996 53.448635300000014 44.6259766 53.226448200000014 43.5432358 53.87719360000001 C 43.1057358 54.14086550000001 42.6530991 54.41332640000001 42.1594467 54.614498300000015 C 41.4003029 54.923961800000015 41.625060999999995 56.058834200000014 42.4436264 56.058834200000014 C 42.7737732 56.058834200000014 43.6093597 55.57483300000001 43.8944321 55.408687700000016 C 43.9368515 55.41100700000002 43.9764634 55.42467890000002 44.020286600000006 55.419185700000014 C 44.53611000000001 55.366798500000016 45.756080700000005 55.77649310000002 45.642845200000004 56.30492790000002 C 45.323997500000004 57.795162300000015 43.642845200000004 59.278560700000014 40.762474100000006 60.60375600000002 C 38.29030610000001 61.741451300000016 37.910423300000005 61.91723260000002 35.46218110000001 62.326412300000015 C 30.82106970000001 63.10180290000002 27.08913610000001 62.818599800000015 24.05397990000001 61.45629510000001 C 23.27255820000001 61.111019200000015 22.59569930000001 62.13862620000001 23.27437780000001 62.706966500000014 C 23.46358490000001 62.94562540000001 23.60994340000001 62.868911800000014 23.68483920000001 63.160396700000014 C 23.83778000000001 63.75004970000001 23.14582820000001 64.09311690000001 22.52175330000001 64.02465830000001 C 22.06130410000001 63.972896700000014 21.57155800000001 63.731685700000014 21.06569860000001 63.30785760000001 C 19.926538400000013 62.35473260000001 19.137964200000013 60.880123200000014 18.84499550000001 59.15649040000001 C 18.43114090000001 56.72266010000001 19.06148720000001 53.49259190000001 19.47243690000001 52.83715450000001 C 19.66921420000001 52.52367790000001 19.971460300000007 52.317623200000014 20.243921300000007 52.31176390000001 L 20.252222100000008 52.31176390000001 C 20.638452600000008 52.31176390000001 20.961206500000007 52.95629520000001 21.16042520000001 54.12914670000001 C 21.17330360000001 54.205135500000004 21.207422300000008 54.27105340000001 21.24074750000001 54.336849300000004 C 21.238245100000007 54.348812200000005 21.23470500000001 54.36034780000001 21.232202600000008 54.37231070000001 C 21.14772990000001 54.777584100000006 21.408472100000008 55.174068500000004 21.813745600000008 55.259029500000004 C 21.86550340000001 55.26977170000001 21.91677290000001 55.274654500000004 21.96755420000001 55.274654500000004 C 22.31521050000001 55.274654500000004 22.62722220000001 55.0314904 22.700952600000008 54.67699820000001 C 23.92190560000001 48.80950930000001 26.850147300000007 43.855873200000005 29.588159600000008 38.330318500000004 C 29.907495500000007 37.6799279 30.304956500000007 37.0070763 30.82741740000001 36.95043570000001 C 31.22211080000001 36.917900100000004 31.73374560000001 37.22787480000001 31.97634320000001 37.931881000000004 C 32.01127630000001 38.033264200000005 32.05978020000001 38.0956078 32.17360690000001 38.52074820000001 C 32.17342760000001 38.537983000000004 32.18470390000001 38.64214330000001 32.18563080000001 38.647945500000006 C 32.50220870000001 40.628822400000004 31.897882500000012 41.86195000000001 31.199487700000013 43.94945920000001 C 31.093307500000012 44.265533600000005 30.838810000000013 44.70977030000001 30.693628300000015 45.096920100000006 C 30.583276700000013 45.39672480000001 30.297632200000013 45.766842000000004 30.174585300000015 45.9064904 C 29.519315700000014 46.343338100000004 29.861476900000014 47.3625909 30.679956400000016 47.2814904 C 33.20835490000002 47.1306573 39.49137870000001 43.861637200000004 39.772727900000014 43.668209100000006 C 40.89042660000001 43.10935980000001 42.10202020000001 42.26015470000001 43.10524740000001 42.057857500000004 C 43.11501300000001 42.0559044 43.29177080000001 42.0393028 43.30153650000001 42.03734970000001 C 44.46409230000001 41.89075470000001 45.10491180000001 42.60049060000001 45.038353000000015 43.056881000000004 z" stroke-linecap="round" />
</g>
		<g transform="matrix(7.53 0 0 7.53 -85.89 -146.73)"  >
<path style="stroke: none; stroke-width: 1; stroke-dasharray: none; stroke-linecap: butt; stroke-dashoffset: 0; stroke-linejoin: miter; stroke-miterlimit: 4; fill: rgb(188,186,185); fill-rule: nonzero; opacity: 1;" vector-effect="non-scaling-stroke"  transform=" translate(-22.59, -14.51)" d="M 20.9602299 14.5871563 L 23.5989018 15.8010235 C 23.9695015 15.9720698 24.4189663 15.8127031 24.594019 15.4328594 C 24.7668706 15.0559063 24.6018315 14.6105938 24.225854899999998 14.4377422 L 21.5862065 13.223875000000001 C 21.2116948 13.052000000000001 20.7654057 13.217039100000001 20.5915776 13.592039100000001 C 20.418726 13.9689922 20.583765 14.4143047 20.9602299 14.5871563 z" stroke-linecap="round" />
</g>
		<g transform="matrix(7.53 0 0 7.53 -61.86 -201.66)"  >
<path style="stroke: none; stroke-width: 1; stroke-dasharray: none; stroke-linecap: butt; stroke-dashoffset: 0; stroke-linejoin: miter; stroke-miterlimit: 4; fill: rgb(188,186,185); fill-rule: nonzero; opacity: 1;" vector-effect="non-scaling-stroke"  transform=" translate(-25.78, -7.22)" d="M 26.4245853 8.6730938 C 27.068109500000002 8.6730938 27.419277100000002 7.9024506 26.9797611 7.418211 L 25.6970463 6.0070782000000005 C 25.418726 5.700437600000001 24.9436283 5.677976600000001 24.637476 5.956296900000001 C 24.330835399999998 6.234617200000001 24.308374399999998 6.709226600000001 24.5866947 7.015867200000001 C 25.7710114 8.216815 25.8688221 8.6730938 26.4245853 8.6730938 z" stroke-linecap="round" />
</g>
		<g transform="matrix(7.53 0 0 7.53 140.56 -162.74)"  >
<path style="stroke: none; stroke-width: 1; stroke-dasharray: none; stroke-linecap: butt; stroke-dashoffset: 0; stroke-linejoin: miter; stroke-miterlimit: 4; fill: rgb(188,186,185); fill-rule: nonzero; opacity: 1;" vector-effect="non-scaling-stroke"  transform=" translate(-52.67, -12.39)" d="M 53.7805405 12.7600079 C 54.1853257 12.6721173 54.4416733 12.2717266 54.3532944 11.8674298 C 54.2644272 11.4631329 53.864036600000006 11.2053204 53.460228 11.2951642 C 52.721458500000004 11.456297000000001 52.011497500000004 11.7238751 51.350853 12.089109500000001 C 50.6748925 12.462618 50.9429894 13.495359500000001 51.7146225 13.495359500000001 C 52.149749799999995 13.495359400000002 52.406879399999994 13.0612688 53.7805405 12.760007900000002 z" stroke-linecap="round" />
</g>
		<g transform="matrix(7.53 0 0 7.53 146.63 -94.9)"  >
<path style="stroke: none; stroke-width: 1; stroke-dasharray: none; stroke-linecap: butt; stroke-dashoffset: 0; stroke-linejoin: miter; stroke-miterlimit: 4; fill: rgb(188,186,185); fill-rule: nonzero; opacity: 1;" vector-effect="non-scaling-stroke"  transform=" translate(-53.47, -21.4)" d="M 54.5031967 20.7111797 L 52.5432358 20.584226599999997 C 52.119896 20.563718799999997 51.772728 20.870359399999998 51.7463608 21.284421899999998 C 51.719993599999995 21.697507799999997 52.0334702 22.0539532 52.446556099999995 22.080320299999997 C 52.475826299999994 22.082214299999997 54.4261322 22.209226599999997 54.4553452 22.209226599999997 C 54.8479233 22.209226599999997 55.17800149999999 21.904539099999997 55.203392099999995 21.5070782 C 55.2297592 21.0939922 54.9162827 20.737546899999998 54.5031967 20.7111797 z" stroke-linecap="round" />
</g>
		<g transform="matrix(7.53 0 0 7.53 -84.89 -98.22)"  >
<path style="stroke: none; stroke-width: 1; stroke-dasharray: none; stroke-linecap: butt; stroke-dashoffset: 0; stroke-linejoin: miter; stroke-miterlimit: 4; fill: rgb(188,186,185); fill-rule: nonzero; opacity: 1;" vector-effect="non-scaling-stroke"  transform=" translate(-22.73, -20.96)" d="M 21.3171635 20.2023907 C 20.9035893 20.2023907 20.5681401 20.537351599999997 20.5671635 20.950437599999997 C 20.566186899999998 21.3654767 20.9016362 21.7014142 21.3156987 21.7023907 C 23.0040856 21.7059002 22.4522935 21.704752 24.135034599999997 21.708250099999997 C 24.548608799999997 21.708250099999997 24.884057999999996 21.3732892 24.885034599999997 20.9602032 C 24.8860112 20.545164099999997 24.550561899999998 20.209226599999997 24.136499399999998 20.208250099999997 C 22.4481106 20.204740499999996 22.9999027 20.205888699999996 21.3171635 20.2023907 z" stroke-linecap="round" />
</g>
</g>
</g>
</svg>