<svg id="Capa_1" enable-background="new 0 0 512 512" height="512" viewBox="0 0 512 512" width="512" xmlns="http://www.w3.org/2000/svg"><g><path d="m94.261 345.405c8.028 0 14.56-6.531 14.56-14.56v-9.256c0-4.142-3.358-7.5-7.5-7.5s-7.5 3.358-7.5 7.5v8.815h-.658c-4.142 0-7.5 3.358-7.5 7.5s3.358 7.5 7.5 7.5h1.098z"/><path d="m247.971 191.49h1.658c10.012 0 18.157-8.145 18.157-18.156v-13.973c0-4.142-3.358-7.5-7.5-7.5s-7.5 3.358-7.5 7.5v13.973c0 1.74-1.416 3.156-3.157 3.156h-1.658c-4.142 0-7.5 3.358-7.5 7.5s3.358 7.5 7.5 7.5z"/><path d="m481.498 398.102-26.848-6.712c-4.662-1.165-7.918-5.335-7.918-10.141v-6.024c10.285-8.302 17.254-20.594 18.593-34.771.389-4.124-2.638-7.782-6.762-8.172-4.118-.383-7.783 2.638-8.172 6.762-1.748 18.514-17.102 32.408-35.633 32.408-18.831 0-34.521-14.721-35.721-33.514l-.514-8.053 24.655-7.188v8.15c0 8.028 6.531 14.56 14.56 14.56h1.098c4.142 0 7.5-3.358 7.5-7.5s-3.358-7.5-7.5-7.5h-.658v-8.815c0-1.096-.235-2.137-.658-3.076l20.508-5.979c5.498-1.603 10.521-4.215 14.889-7.596.796 3.309 3.766 5.744 7.301 5.744 3.924 0 7.224-3.052 7.478-7.023l.943-14.79c.143-2.245.148-4.507.014-6.742 1.261-4.151 1.935-8.522 1.935-13v-50.959c0-4.142-3.358-7.5-7.5-7.5s-7.5 3.358-7.5 7.5v50.959c0 13.344-8.947 25.271-21.757 29.006-18.186 5.302-58.522 17.061-73.687 21.482v-22.2c0-4.142-3.358-7.5-7.5-7.5s-7.5 3.358-7.5 7.5c0 218.609-.001-11.661 0 199.583h-180.155v-127.906c0-4.142-3.358-7.5-7.5-7.5s-7.5 3.358-7.5 7.5v127.905h-23.821c0-32.194 0 57.79 0-163.179 0-19.223 13.011-36.01 31.779-40.702l40.528-10.132c.058-.015.116-.03.175-.045l20.572 30.857c2.373 3.558 6.798 4.878 10.619 3.497l2.793 8.379-13.432 86.72c-.377 2.434.279 4.941 1.804 6.883l25.714 32.708c3.77 4.798 11.044 4.806 14.821 0l25.716-32.712c1.521-1.938 2.177-4.445 1.8-6.879l-13.432-86.72 2.793-8.379c3.841 1.388 8.257.043 10.619-3.498l24.283-36.424 81.945-22.189c5.845-1.582 10.084-6.702 10.549-12.74l5.814-75.583h23.851c4.142 0 7.5-3.358 7.5-7.5s-3.358-7.5-7.5-7.5h-22.699l2.032-26.417h40.777v57.723c0 4.142 3.358 7.5 7.5 7.5s7.5-3.358 7.5-7.5v-158.879c0-13.393-10.896-24.289-24.289-24.289h-21.644c-13.393 0-24.289 10.896-24.289 24.289v22.015c-4.922-3.096-10.743-4.888-16.975-4.888h-.556c-5.558 0-10.08 4.522-10.08 10.081v42.603c0 15.821 11.783 28.942 27.035 31.049l-8.898 115.68-78.623 21.289-10.516-10.516c-.925-.925-2.013-1.612-3.179-2.055-.002-.28-.001-3.213-.001-11.288 14.522-11.216 24.752-27.8 27.605-46.857 19.214-2.98 33.968-19.634 33.968-39.67 0-13.296-10.817-24.113-24.114-24.113h-5.522l1.142-17.891c1.381-21.646-6.032-42.279-20.873-58.097s-34.96-24.53-56.651-24.53h-.222c-9.589-.017-28.429 1.942-46.493 15.61-1.572 1.19-2.738 2.727-3.468 4.429-2.028.674-3.891 1.83-5.431 3.409-15.319 15.714-23.304 37.284-21.908 59.179l1.142 17.892h-5.522c-13.296 0-24.113 10.817-24.113 24.113 0 20.036 14.754 36.691 33.968 39.67 2.853 19.057 13.083 35.64 27.605 46.857 0 8.125.001 11.007-.001 11.289-1.167.442-2.255 1.129-3.18 2.054l-11.993 11.994c-1.538 1.536-2.421 3.523-2.611 5.574-39.356 9.876-38.008 9.418-40.97 10.353-1.234-11.565-6.161-22.343-14.313-31.032-10.315-10.994-24.299-17.049-39.375-17.049-11.27 0-22.067 3.44-31.227 9.947-3.377 2.399-4.17 7.081-1.771 10.458 2.4 3.377 7.082 4.169 10.458 1.771 6.607-4.694 14.402-7.175 22.541-7.175 10.888 0 20.986 4.373 28.436 12.313 7.152 7.623 10.867 17.475 10.538 27.868-15.337 10.354-25.047 27.829-25.047 47.199v34.814c-4.384 1.85-9.128 2.815-13.926 2.815-18.831 0-34.521-14.721-35.721-33.514l-3.191-50.021c-.229-3.593.03-7.177.77-10.65.863-4.051-1.721-8.035-5.772-8.898-4.055-.865-8.036 1.721-8.898 5.772-1.026 4.814-1.385 9.771-1.069 14.731l3.191 50.021c.934 14.634 8.06 27.528 18.717 36.185v6.172c0 4.806-3.256 8.976-7.918 10.142l-26.848 6.712c-17.956 4.489-30.497 20.55-30.497 39.059v66.632c0 4.525 3.682 8.207 8.207 8.207h495.575c4.525 0 8.207-3.682 8.207-8.207v-66.632c-.004-18.512-12.545-34.574-30.501-39.062zm-93.743-304.002v-37.115c7.252 1.931 12.611 8.555 12.611 16.407v3.136c0 4.142 3.358 7.5 7.5 7.5s7.5-3.358 7.5-7.5v-52.239c0-5.122 4.167-9.289 9.289-9.289h21.645c5.122 0 9.289 4.167 9.289 9.289v86.155c-16.191 0-35.257 0-51.489 0-9.013 0-16.345-7.332-16.345-16.344zm-179.199 176.662 5.11-5.111 28.689 19.126c-5.476 5.476-9.038 9.038-14.673 14.673zm45.572 23.456 12.127 12.127-3.728 11.183h-16.8l-3.727-11.183zm.001 142.925-19.702-25.06 12.323-79.556h14.756l12.323 79.556zm26.444-137.693c-2.788-2.788-10.99-10.991-14.673-14.673l28.688-19.126 5.11 5.11zm55.458-156.831c5.025 0 9.114 4.088 9.114 9.113 0 11.277-7.461 20.843-17.707 24.022 1.15-18.03.698-10.947 2.114-33.135zm-107.182-76.113-9.333-14.001c14.155-9.406 28.528-10.423 34.332-10.406l.28.001c17.502 0 33.736 7.029 45.711 19.793 11.976 12.764 17.957 29.413 16.842 46.879l-1.72 26.956-11.848-19.747c-2.048-3.415-5.794-5.537-9.777-5.537h-24.761c-17.416 0-34.593-4.055-50.171-11.844-4.987-2.494-11.076-.464-13.571 4.523l-12.078 24.155-1.181-18.506c-1.089-17.073 4.893-33.902 16.452-46.458l8.338 12.513c2.213 3.322 6.64 4.328 10.072 2.29 3.696-2.194 4.796-7.036 2.413-10.611zm-65.738 85.226c0-5.025 4.088-9.113 9.113-9.113h6.479c.709 11.107 1.687 26.439 2.114 33.135-10.244-3.179-17.706-12.745-17.706-24.022zm33.282 32.549-1.739-27.259 21.455-42.906c16.417 7.423 34.454 11.329 52.468 11.329h22.722l21.982 36.636c-.819 12.832-1.404 22.011-1.416 22.2-1.938 30.375-27.298 54.169-57.735 54.169s-55.799-23.794-57.737-54.169zm87.179 62.931v2.206c0 1.776.135 3.539.403 5.281l-29.847 19.898-29.847-19.897c.268-1.741.403-3.505.403-5.281v-2.206c18.686 8.303 40.13 8.335 58.888-.001zm80.196 86.973.3 4.706c.934 14.634 8.06 27.528 18.717 36.185v6.172c0 4.806-3.256 8.976-7.918 10.142l-14.723 3.681c0-20.133.001-43.097.001-59.829zm-348.763 102.976c0-11.613 7.868-21.69 19.134-24.507l26.848-6.711c10.621-2.655 18.245-11.715 19.183-22.455 9.665 3.468 20.514 4.002 30.997 1.018v112.494h-68.55v-36.472c0-4.142-3.358-7.5-7.5-7.5s-7.5 3.358-7.5 7.5v36.472h-12.612zm481.99 59.839h-12.611v-36.472c0-4.142-3.358-7.5-7.5-7.5s-7.5 3.358-7.5 7.5v36.472h-109.24v-86.468l18.361-4.59c10.621-2.655 18.245-11.715 19.183-22.455 11.167 4.007 23.329 3.877 34.148.057.959 10.715 8.575 19.748 19.178 22.398l26.848 6.712c11.266 2.816 19.134 12.895 19.134 24.507v59.839z"/><path d="m70.505 87.535 8.786 4.392c10.004 5.002 18.269 13.267 23.271 23.272l4.393 8.785c1.468 2.937 4.419 4.761 7.703 4.762 3.298 0 6.242-1.835 7.708-4.762l4.393-8.785c5.002-10.004 13.267-18.269 23.271-23.272l8.784-4.392c2.938-1.468 4.764-4.421 4.764-7.706s-1.825-6.237-4.762-7.705l-8.786-4.394c-10.004-5.002-18.269-13.267-23.271-23.271l-4.393-8.787c-1.463-2.925-4.407-4.761-7.707-4.761-3.284 0-6.236 1.826-7.703 4.762l-4.393 8.785c-5.003 10.005-13.268 18.27-23.271 23.271l-8.786 4.393c-2.938 1.468-4.762 4.421-4.762 7.705 0 3.286 1.824 6.239 4.761 7.708zm44.155-33.866c6.071 10.94 15.221 20.089 26.16 26.16-10.94 6.072-20.089 15.221-26.16 26.161-6.072-10.94-15.221-20.089-26.16-26.161 10.939-6.071 20.088-15.22 26.16-26.16z"/><path d="m40.18 173.803 7.321 3.661c8.097 4.049 14.785 10.737 18.834 18.834l3.66 7.318c1.437 2.875 4.326 4.662 7.54 4.662s6.103-1.786 7.539-4.659l3.661-7.321c4.049-8.097 10.737-14.786 18.834-18.834l7.32-3.661c2.874-1.437 4.66-4.326 4.66-7.539s-1.786-6.102-4.659-7.539l-7.321-3.661c-8.097-4.048-14.785-10.736-18.834-18.834l-3.661-7.32c-1.437-2.874-4.326-4.66-7.539-4.66s-6.102 1.786-7.539 4.659l-3.661 7.321c-4.049 8.097-10.737 14.785-18.834 18.834l-7.321 3.661c-2.874 1.437-4.66 4.326-4.66 7.539.001 3.213 1.786 6.102 4.66 7.539zm37.355-26.85c4.772 7.867 11.444 14.539 19.311 19.312-7.867 4.772-14.539 11.444-19.312 19.311-4.772-7.867-11.444-14.539-19.311-19.312 7.867-4.772 14.54-11.445 19.312-19.311z"/></g></svg>